<mxfile modified="2023-10-29T16:46:20.188Z" host="app.diagrams.net" agent="Mozilla/5.0 (Windows NT 10.0; Win64; x64) AppleWebKit/537.36 (KHTML, like Gecko) Chrome/118.0.0.0 Safari/537.36" etag="8AF6hELcjEdeFfxx5Wdc" version="22.0.8" type="github" pages="3">
  <diagram id="l8hXMBHkgcEJcSW0mbfh" name="Page-1">
    <mxGraphModel dx="1050" dy="691" grid="1" gridSize="10" guides="1" tooltips="1" connect="1" arrows="1" fold="1" page="1" pageScale="1" pageWidth="1169" pageHeight="827" math="0" shadow="0">
      <root>
        <mxCell id="0" />
        <mxCell id="1" parent="0" />
        <mxCell id="8--HhbSZYtI3ddgJnD71-25" style="edgeStyle=none;rounded=0;orthogonalLoop=1;jettySize=auto;html=1;sourcePerimeterSpacing=5;endArrow=none;endFill=0;targetPerimeterSpacing=5;" parent="1" source="8--HhbSZYtI3ddgJnD71-2" target="8--HhbSZYtI3ddgJnD71-12" edge="1">
          <mxGeometry relative="1" as="geometry" />
        </mxCell>
        <mxCell id="8--HhbSZYtI3ddgJnD71-24" style="edgeStyle=none;rounded=0;orthogonalLoop=1;jettySize=auto;html=1;sourcePerimeterSpacing=5;endArrow=none;endFill=0;targetPerimeterSpacing=5;" parent="1" source="8--HhbSZYtI3ddgJnD71-5" target="8--HhbSZYtI3ddgJnD71-12" edge="1">
          <mxGeometry relative="1" as="geometry" />
        </mxCell>
        <mxCell id="8--HhbSZYtI3ddgJnD71-26" style="edgeStyle=none;rounded=0;orthogonalLoop=1;jettySize=auto;html=1;sourcePerimeterSpacing=5;endArrow=none;endFill=0;targetPerimeterSpacing=5;" parent="1" source="8--HhbSZYtI3ddgJnD71-11" target="8--HhbSZYtI3ddgJnD71-7" edge="1">
          <mxGeometry relative="1" as="geometry" />
        </mxCell>
        <mxCell id="8--HhbSZYtI3ddgJnD71-27" style="edgeStyle=none;rounded=0;orthogonalLoop=1;jettySize=auto;html=1;sourcePerimeterSpacing=5;endArrow=none;endFill=0;targetPerimeterSpacing=5;" parent="1" source="8--HhbSZYtI3ddgJnD71-11" target="8--HhbSZYtI3ddgJnD71-3" edge="1">
          <mxGeometry relative="1" as="geometry" />
        </mxCell>
        <mxCell id="8--HhbSZYtI3ddgJnD71-28" style="edgeStyle=none;rounded=0;orthogonalLoop=1;jettySize=auto;html=1;sourcePerimeterSpacing=5;endArrow=none;endFill=0;targetPerimeterSpacing=5;" parent="1" source="8--HhbSZYtI3ddgJnD71-11" target="8--HhbSZYtI3ddgJnD71-13" edge="1">
          <mxGeometry relative="1" as="geometry" />
        </mxCell>
        <mxCell id="8--HhbSZYtI3ddgJnD71-29" style="edgeStyle=none;rounded=0;orthogonalLoop=1;jettySize=auto;html=1;sourcePerimeterSpacing=5;endArrow=none;endFill=0;targetPerimeterSpacing=5;" parent="1" source="8--HhbSZYtI3ddgJnD71-11" target="8--HhbSZYtI3ddgJnD71-6" edge="1">
          <mxGeometry relative="1" as="geometry" />
        </mxCell>
        <mxCell id="8--HhbSZYtI3ddgJnD71-30" style="edgeStyle=none;rounded=0;orthogonalLoop=1;jettySize=auto;html=1;sourcePerimeterSpacing=5;endArrow=none;endFill=0;targetPerimeterSpacing=5;" parent="1" source="8--HhbSZYtI3ddgJnD71-11" target="8--HhbSZYtI3ddgJnD71-4" edge="1">
          <mxGeometry relative="1" as="geometry" />
        </mxCell>
        <mxCell id="8--HhbSZYtI3ddgJnD71-31" style="edgeStyle=none;rounded=0;orthogonalLoop=1;jettySize=auto;html=1;sourcePerimeterSpacing=5;endArrow=none;endFill=0;targetPerimeterSpacing=5;" parent="1" source="8--HhbSZYtI3ddgJnD71-11" target="8--HhbSZYtI3ddgJnD71-19" edge="1">
          <mxGeometry relative="1" as="geometry" />
        </mxCell>
        <mxCell id="8--HhbSZYtI3ddgJnD71-21" style="edgeStyle=none;rounded=0;orthogonalLoop=1;jettySize=auto;html=1;sourcePerimeterSpacing=5;endArrow=none;endFill=0;targetPerimeterSpacing=5;" parent="1" source="8--HhbSZYtI3ddgJnD71-12" target="8--HhbSZYtI3ddgJnD71-11" edge="1">
          <mxGeometry relative="1" as="geometry" />
        </mxCell>
        <mxCell id="8--HhbSZYtI3ddgJnD71-23" style="edgeStyle=none;rounded=0;orthogonalLoop=1;jettySize=auto;html=1;sourcePerimeterSpacing=5;endArrow=none;endFill=0;targetPerimeterSpacing=5;" parent="1" source="8--HhbSZYtI3ddgJnD71-16" target="8--HhbSZYtI3ddgJnD71-12" edge="1">
          <mxGeometry relative="1" as="geometry" />
        </mxCell>
        <mxCell id="8--HhbSZYtI3ddgJnD71-20" style="rounded=0;orthogonalLoop=1;jettySize=auto;html=1;endArrow=none;endFill=0;sourcePerimeterSpacing=5;targetPerimeterSpacing=5;" parent="1" source="8--HhbSZYtI3ddgJnD71-17" target="8--HhbSZYtI3ddgJnD71-12" edge="1">
          <mxGeometry relative="1" as="geometry" />
        </mxCell>
        <mxCell id="8--HhbSZYtI3ddgJnD71-22" style="edgeStyle=none;rounded=0;orthogonalLoop=1;jettySize=auto;html=1;sourcePerimeterSpacing=5;endArrow=none;endFill=0;targetPerimeterSpacing=5;" parent="1" source="8--HhbSZYtI3ddgJnD71-18" target="8--HhbSZYtI3ddgJnD71-12" edge="1">
          <mxGeometry relative="1" as="geometry" />
        </mxCell>
        <mxCell id="8--HhbSZYtI3ddgJnD71-32" style="edgeStyle=none;rounded=0;orthogonalLoop=1;jettySize=auto;html=1;sourcePerimeterSpacing=5;endArrow=none;endFill=0;targetPerimeterSpacing=5;" parent="1" source="8--HhbSZYtI3ddgJnD71-19" target="8--HhbSZYtI3ddgJnD71-9" edge="1">
          <mxGeometry relative="1" as="geometry" />
        </mxCell>
        <mxCell id="8--HhbSZYtI3ddgJnD71-33" style="edgeStyle=none;rounded=0;orthogonalLoop=1;jettySize=auto;html=1;sourcePerimeterSpacing=5;endArrow=none;endFill=0;targetPerimeterSpacing=5;" parent="1" source="8--HhbSZYtI3ddgJnD71-19" target="8--HhbSZYtI3ddgJnD71-8" edge="1">
          <mxGeometry relative="1" as="geometry" />
        </mxCell>
        <mxCell id="8--HhbSZYtI3ddgJnD71-34" style="edgeStyle=none;rounded=0;orthogonalLoop=1;jettySize=auto;html=1;sourcePerimeterSpacing=5;endArrow=none;endFill=0;targetPerimeterSpacing=5;" parent="1" source="8--HhbSZYtI3ddgJnD71-19" target="8--HhbSZYtI3ddgJnD71-15" edge="1">
          <mxGeometry relative="1" as="geometry" />
        </mxCell>
        <mxCell id="8--HhbSZYtI3ddgJnD71-35" style="edgeStyle=none;rounded=0;orthogonalLoop=1;jettySize=auto;html=1;sourcePerimeterSpacing=5;endArrow=none;endFill=0;targetPerimeterSpacing=5;" parent="1" source="8--HhbSZYtI3ddgJnD71-19" target="8--HhbSZYtI3ddgJnD71-14" edge="1">
          <mxGeometry relative="1" as="geometry" />
        </mxCell>
        <mxCell id="8--HhbSZYtI3ddgJnD71-36" style="edgeStyle=none;rounded=0;orthogonalLoop=1;jettySize=auto;html=1;sourcePerimeterSpacing=5;endArrow=none;endFill=0;targetPerimeterSpacing=5;" parent="1" source="8--HhbSZYtI3ddgJnD71-19" target="8--HhbSZYtI3ddgJnD71-1" edge="1">
          <mxGeometry relative="1" as="geometry" />
        </mxCell>
        <mxCell id="8--HhbSZYtI3ddgJnD71-37" style="edgeStyle=none;rounded=0;orthogonalLoop=1;jettySize=auto;html=1;sourcePerimeterSpacing=5;endArrow=none;endFill=0;targetPerimeterSpacing=5;" parent="1" source="8--HhbSZYtI3ddgJnD71-19" target="8--HhbSZYtI3ddgJnD71-10" edge="1">
          <mxGeometry relative="1" as="geometry" />
        </mxCell>
        <mxCell id="8--HhbSZYtI3ddgJnD71-1" value="Tape&#xa;Storage" style="shape=image;verticalLabelPosition=bottom;verticalAlign=top;imageAspect=0;aspect=fixed;image=data:image/svg+xml,PHN2ZyB4bWxucz0iaHR0cDovL3d3dy53My5vcmcvMjAwMC9zdmciIHZlcnNpb249IjEiIHZpZXdCb3g9IjAgMCA0OCA0OCIgZW5hYmxlLWJhY2tncm91bmQ9Im5ldyAwIDAgNDggNDgiPiYjeGE7ICAgIDxwYXRoIGZpbGw9IiM0Q0FGNTAiIGQ9Ik00OCwyNGMwLTYuMS00LjktMTEtMTEtMTFzLTExLDQuOS0xMSwxMWMwLDIuNywwLjksNS4xLDIuNSw3aC05YzEuNi0xLjksMi41LTQuMywyLjUtN2MwLTYuMS00LjktMTEtMTEtMTEgUzAsMTcuOSwwLDI0czQuOSwxMSwxMSwxMWgyN3YtMC4xQzQzLjYsMzQuNCw0OCwyOS43LDQ4LDI0eiBNNCwyNGMwLTMuOSwzLjEtNyw3LTdzNywzLjEsNyw3cy0zLjEsNy03LDdTNCwyNy45LDQsMjR6IE0zNywzMSBjLTMuOSwwLTctMy4xLTctN3MzLjEtNyw3LTdjMy45LDAsNywzLjEsNyw3UzQwLjksMzEsMzcsMzF6Ii8+JiN4YTs8L3N2Zz4=;labelBackgroundColor=#ffffff;" parent="1" vertex="1">
          <mxGeometry x="710" y="508" width="48" height="48" as="geometry" />
        </mxCell>
        <mxCell id="8--HhbSZYtI3ddgJnD71-2" value="Mobile" style="shape=image;verticalLabelPosition=bottom;verticalAlign=top;imageAspect=0;aspect=fixed;image=data:image/svg+xml,PHN2ZyB4bWxucz0iaHR0cDovL3d3dy53My5vcmcvMjAwMC9zdmciIHZlcnNpb249IjEiIHZpZXdCb3g9IjAgMCA0OCA0OCIgZW5hYmxlLWJhY2tncm91bmQ9Im5ldyAwIDAgNDggNDgiPiYjeGE7ICAgIDxwYXRoIGZpbGw9IiMzNzQ3NEYiIGQ9Ik00LDM5VjdjMC0yLjIsMS44LTQsNC00aDIyYzIuMiwwLDQsMS44LDQsNHYzMmMwLDIuMi0xLjgsNC00LDRIOEM1LjgsNDMsNCw0MS4yLDQsMzl6Ii8+JiN4YTsgICAgPHBhdGggZmlsbD0iI0JCREVGQiIgZD0iTTMwLDZIOEM3LjQsNiw3LDYuNCw3LDd2MjljMCwwLjYsMC40LDEsMSwxaDIyYzAuNiwwLDEtMC40LDEtMVY3QzMxLDYuNCwzMC42LDYsMzAsNnoiLz4mI3hhOyAgICA8cmVjdCB4PSIxNSIgeT0iMzkiIGZpbGw9IiM3ODkwOUMiIHdpZHRoPSI2IiBoZWlnaHQ9IjIiLz4mI3hhOyAgICA8cGF0aCBmaWxsPSIjRTM4OTM5IiBkPSJNMjQsNDFWMTdjMC0yLjIsMS44LTQsNC00aDEyYzIuMiwwLDQsMS44LDQsNHYyNGMwLDIuMi0xLjgsNC00LDRIMjhDMjUuOCw0NSwyNCw0My4yLDI0LDQxeiIvPiYjeGE7ICAgIDxwYXRoIGZpbGw9IiNGRkYzRTAiIGQ9Ik00MCwxNkgyOGMtMC42LDAtMSwwLjQtMSwxdjIyYzAsMC42LDAuNCwxLDEsMWgxMmMwLjYsMCwxLTAuNCwxLTFWMTdDNDEsMTYuNCw0MC42LDE2LDQwLDE2eiIvPiYjeGE7ICAgIDxjaXJjbGUgZmlsbD0iI0E2NjQyQSIgY3g9IjM0IiBjeT0iNDIuNSIgcj0iMS41Ii8+JiN4YTs8L3N2Zz4=;labelBackgroundColor=#ffffff;" parent="1" vertex="1">
          <mxGeometry x="202" y="282" width="48" height="48" as="geometry" />
        </mxCell>
        <mxCell id="8--HhbSZYtI3ddgJnD71-3" value="Chat" style="shape=image;verticalLabelPosition=bottom;verticalAlign=top;imageAspect=0;aspect=fixed;image=data:image/svg+xml,PHN2ZyB4bWxucz0iaHR0cDovL3d3dy53My5vcmcvMjAwMC9zdmciIHZlcnNpb249IjEiIHZpZXdCb3g9IjAgMCA0OCA0OCIgZW5hYmxlLWJhY2tncm91bmQ9Im5ldyAwIDAgNDggNDgiPiYjeGE7ICAgIDxwYXRoIGZpbGw9IiMwMDk2ODgiIGQ9Ik0zNywzOUgxMWwtNiw2VjExYzAtMy4zLDIuNy02LDYtNmgyNmMzLjMsMCw2LDIuNyw2LDZ2MjJDNDMsMzYuMyw0MC4zLDM5LDM3LDM5eiIvPiYjeGE7ICAgIDxnIGZpbGw9IiNmZmYiPiYjeGE7ICAgICAgICA8Y2lyY2xlIGN4PSIyNCIgY3k9IjIyIiByPSIzIi8+JiN4YTsgICAgICAgIDxjaXJjbGUgY3g9IjM0IiBjeT0iMjIiIHI9IjMiLz4mI3hhOyAgICAgICAgPGNpcmNsZSBjeD0iMTQiIGN5PSIyMiIgcj0iMyIvPiYjeGE7ICAgIDwvZz4mI3hhOzwvc3ZnPg==;labelBackgroundColor=#ffffff;" parent="1" vertex="1">
          <mxGeometry x="684" y="76" width="48" height="48" as="geometry" />
        </mxCell>
        <mxCell id="8--HhbSZYtI3ddgJnD71-4" value="Customer Support" style="shape=image;verticalLabelPosition=bottom;verticalAlign=top;imageAspect=0;aspect=fixed;image=data:image/svg+xml,PHN2ZyB4bWxucz0iaHR0cDovL3d3dy53My5vcmcvMjAwMC9zdmciIHZlcnNpb249IjEiIHZpZXdCb3g9IjAgMCA0OCA0OCIgZW5hYmxlLWJhY2tncm91bmQ9Im5ldyAwIDAgNDggNDgiPiYjeGE7ICAgIDxyZWN0IHg9IjEzIiB5PSIzMCIgZmlsbD0iI0JGMzYwQyIgd2lkdGg9IjIyIiBoZWlnaHQ9IjEyIi8+JiN4YTsgICAgPGcgZmlsbD0iI0ZGQTcyNiI+JiN4YTsgICAgICAgIDxjaXJjbGUgY3g9IjEwIiBjeT0iMjYiIHI9IjQiLz4mI3hhOyAgICAgICAgPGNpcmNsZSBjeD0iMzgiIGN5PSIyNiIgcj0iNCIvPiYjeGE7ICAgIDwvZz4mI3hhOyAgICA8cGF0aCBmaWxsPSIjRkZCNzREIiBkPSJNMzksMTljMC0xMi43LTMwLTguMy0zMCwwYzAsMS44LDAsOC4yLDAsMTBjMCw4LjMsNi43LDE1LDE1LDE1czE1LTYuNywxNS0xNUMzOSwyNy4yLDM5LDIwLjgsMzksMTl6Ii8+JiN4YTsgICAgPGcgZmlsbD0iIzc4NDcxOSI+JiN4YTsgICAgICAgIDxjaXJjbGUgY3g9IjMwIiBjeT0iMjYiIHI9IjIiLz4mI3hhOyAgICAgICAgPGNpcmNsZSBjeD0iMTgiIGN5PSIyNiIgcj0iMiIvPiYjeGE7ICAgIDwvZz4mI3hhOyAgICA8cGF0aCBmaWxsPSIjRkY1NzIyIiBkPSJNMjQsMkMxNS41LDIsMyw3LjgsMywzNS42TDEzLDQyVjI0bDE2LjgtOS44TDM1LDIxdjIxbDEwLTguMmMwLTUuNi0wLjktMjktMTUuNC0yOUwyOC4yLDJIMjR6Ii8+JiN4YTsgICAgPHBhdGggZmlsbD0iIzc1NzU3NSIgZD0iTTQ1LDI0Yy0wLjYsMC0xLDAuNC0xLDF2LTdjMC04LjgtNy4yLTE2LTE2LTE2aC05Yy0wLjYsMC0xLDAuNC0xLDFzMC40LDEsMSwxaDljNy43LDAsMTQsNi4zLDE0LDE0djEwIGMwLDAuNiwwLjQsMSwxLDFzMS0wLjQsMS0xdjJjMCwzLjktMy4xLDctNyw3SDI0Yy0wLjYsMC0xLDAuNC0xLDFzMC40LDEsMSwxaDEzYzUsMCw5LTQsOS05di01QzQ2LDI0LjQsNDUuNiwyNCw0NSwyNHoiLz4mI3hhOyAgICA8ZyBmaWxsPSIjMzc0NzRGIj4mI3hhOyAgICAgICAgPHBhdGggZD0iTTQ1LDIyaC0xYy0xLjEsMC0yLDAuOS0yLDJ2NGMwLDEuMSwwLjksMiwyLDJoMWMxLjEsMCwyLTAuOSwyLTJ2LTRDNDcsMjIuOSw0Ni4xLDIyLDQ1LDIyeiIvPiYjeGE7ICAgICAgICA8Y2lyY2xlIGN4PSIyNCIgY3k9IjM4IiByPSIyIi8+JiN4YTsgICAgPC9nPiYjeGE7PC9zdmc+;labelBackgroundColor=#ffffff;" parent="1" vertex="1">
          <mxGeometry x="858" y="330" width="48" height="48" as="geometry" />
        </mxCell>
        <mxCell id="8--HhbSZYtI3ddgJnD71-5" value="Home" style="shape=image;verticalLabelPosition=bottom;verticalAlign=top;imageAspect=0;aspect=fixed;image=data:image/svg+xml,PHN2ZyB4bWxucz0iaHR0cDovL3d3dy53My5vcmcvMjAwMC9zdmciIHZlcnNpb249IjEiIHZpZXdCb3g9IjAgMCA0OCA0OCIgZW5hYmxlLWJhY2tncm91bmQ9Im5ldyAwIDAgNDggNDgiPiYjeGE7ICAgIDxwb2x5Z29uIGZpbGw9IiNFOEVBRjYiIHBvaW50cz0iNDIsMzkgNiwzOSA2LDIzIDI0LDYgNDIsMjMiLz4mI3hhOyAgICA8ZyBmaWxsPSIjQzVDQUU5Ij4mI3hhOyAgICAgICAgPHBvbHlnb24gcG9pbnRzPSIzOSwyMSAzNCwxNiAzNCw5IDM5LDkiLz4mI3hhOyAgICAgICAgPHJlY3QgeD0iNiIgeT0iMzkiIHdpZHRoPSIzNiIgaGVpZ2h0PSI1Ii8+JiN4YTsgICAgPC9nPiYjeGE7ICAgIDxwb2x5Z29uIGZpbGw9IiNCNzFDMUMiIHBvaW50cz0iMjQsNC4zIDQsMjIuOSA2LDI1LjEgMjQsOC40IDQyLDI1LjEgNDQsMjIuOSIvPiYjeGE7ICAgIDxyZWN0IHg9IjE4IiB5PSIyOCIgZmlsbD0iI0Q4NDMxNSIgd2lkdGg9IjEyIiBoZWlnaHQ9IjE2Ii8+JiN4YTsgICAgPHJlY3QgeD0iMjEiIHk9IjE3IiBmaWxsPSIjMDE1NzlCIiB3aWR0aD0iNiIgaGVpZ2h0PSI2Ii8+JiN4YTsgICAgPHBhdGggZmlsbD0iI0ZGOEE2NSIgZD0iTTI3LjUsMzUuNWMtMC4zLDAtMC41LDAuMi0wLjUsMC41djJjMCwwLjMsMC4yLDAuNSwwLjUsMC41UzI4LDM4LjMsMjgsMzh2LTJDMjgsMzUuNywyNy44LDM1LjUsMjcuNSwzNS41eiIvPiYjeGE7PC9zdmc+;labelBackgroundColor=#ffffff;" parent="1" vertex="1">
          <mxGeometry x="170" y="186" width="48" height="48" as="geometry" />
        </mxCell>
        <mxCell id="8--HhbSZYtI3ddgJnD71-6" value="Education" style="shape=image;verticalLabelPosition=bottom;verticalAlign=top;imageAspect=0;aspect=fixed;image=data:image/svg+xml,PHN2ZyB4bWxucz0iaHR0cDovL3d3dy53My5vcmcvMjAwMC9zdmciIHZlcnNpb249IjEiIHZpZXdCb3g9IjAgMCA0OCA0OCIgZW5hYmxlLWJhY2tncm91bmQ9Im5ldyAwIDAgNDggNDgiPiYjeGE7ICAgIDxnIGZpbGw9IiMzNzQ3NEYiPiYjeGE7ICAgICAgICA8cmVjdCB4PSI5IiB5PSIyMCIgd2lkdGg9IjMwIiBoZWlnaHQ9IjEzIi8+JiN4YTsgICAgICAgIDxlbGxpcHNlIGN4PSIyNCIgY3k9IjMzIiByeD0iMTUiIHJ5PSI2Ii8+JiN4YTsgICAgPC9nPiYjeGE7ICAgIDxwYXRoIGZpbGw9IiM3ODkwOUMiIGQ9Ik0yMy4xLDguMkwwLjYsMTguMWMtMC44LDAuNC0wLjgsMS41LDAsMS45bDIyLjUsOS45YzAuNiwwLjIsMS4yLDAuMiwxLjgsMGwyMi41LTkuOWMwLjgtMC40LDAuOC0xLjUsMC0xLjkgTDI0LjksOC4yQzI0LjMsNy45LDIzLjcsNy45LDIzLjEsOC4yeiIvPiYjeGE7ICAgIDxnIGZpbGw9IiMzNzQ3NEYiPiYjeGE7ICAgICAgICA8cGF0aCBkPSJNNDMuMiwyMC40bC0yMC0zLjRjLTAuNS0wLjEtMS4xLDAuMy0xLjIsMC44Yy0wLjEsMC41LDAuMywxLjEsMC44LDEuMkw0MiwyMi4yVjM3YzAsMC42LDAuNCwxLDEsMSBzMS0wLjQsMS0xVjIxLjRDNDQsMjAuOSw0My42LDIwLjUsNDMuMiwyMC40eiIvPiYjeGE7ICAgICAgICA8Y2lyY2xlIGN4PSI0MyIgY3k9IjM3IiByPSIyIi8+JiN4YTsgICAgICAgIDxwYXRoIGQ9Ik00Niw0MGMwLDEuNy0zLDYtMyw2cy0zLTQuMy0zLTZzMS4zLTMsMy0zUzQ2LDM4LjMsNDYsNDB6Ii8+JiN4YTsgICAgPC9nPiYjeGE7PC9zdmc+;labelBackgroundColor=#ffffff;" parent="1" vertex="1">
          <mxGeometry x="880" y="220" width="48" height="48" as="geometry" />
        </mxCell>
        <mxCell id="8--HhbSZYtI3ddgJnD71-7" value="Alarm" style="shape=image;verticalLabelPosition=bottom;verticalAlign=top;imageAspect=0;aspect=fixed;image=data:image/svg+xml,PHN2ZyB4bWxucz0iaHR0cDovL3d3dy53My5vcmcvMjAwMC9zdmciIHZlcnNpb249IjEiIHZpZXdCb3g9IjAgMCA0OCA0OCIgZW5hYmxlLWJhY2tncm91bmQ9Im5ldyAwIDAgNDggNDgiPiYjeGE7ICAgIDxnIGZpbGw9IiMzNzQ3NEYiPiYjeGE7ICAgICAgICA8cGF0aCBkPSJNMzguNSw0NC42bC00LTRsMi4xLTIuMWw0LDRjMC42LDAuNiwwLjYsMS41LDAsMi4xbDAsMEM0MC4xLDQ1LjEsMzkuMSw0NS4xLDM4LjUsNDQuNnoiLz4mI3hhOyAgICAgICAgPHBhdGggZD0iTTkuNSw0NC42bDQtNGwtMi4xLTIuMWwtNCw0Yy0wLjYsMC42LTAuNiwxLjUsMCwyLjFsMCwwQzcuOSw0NS4xLDguOSw0NS4xLDkuNSw0NC42eiIvPiYjeGE7ICAgIDwvZz4mI3hhOyAgICA8Y2lyY2xlIGZpbGw9IiNDNjI4MjgiIGN4PSIyNCIgY3k9IjI0IiByPSIyMCIvPiYjeGE7ICAgIDxjaXJjbGUgZmlsbD0iI2VlZSIgY3g9IjI0IiBjeT0iMjQiIHI9IjE2Ii8+JiN4YTsgICAgPHJlY3QgeD0iMTkiIHk9IjIyLjEiIHRyYW5zZm9ybT0ibWF0cml4KC0uNzA3IC0uNzA3IC43MDcgLS43MDcgMTIuOTA0IDYyLjUzNykiIGZpbGw9IiNFNTM5MzUiIHdpZHRoPSIuOCIgaGVpZ2h0PSIxMyIvPiYjeGE7ICAgIDxyZWN0IHg9IjIzIiB5PSIxMSIgd2lkdGg9IjIiIGhlaWdodD0iMTMiLz4mI3hhOyAgICA8cmVjdCB4PSIyNi4xIiB5PSIyMi43IiB0cmFuc2Zvcm09Im1hdHJpeCgtLjcwNyAuNzA3IC0uNzA3IC0uNzA3IDY1Ljc4NyAyNy4yNSkiIHdpZHRoPSIyLjMiIGhlaWdodD0iOS4yIi8+JiN4YTsgICAgPGNpcmNsZSBjeD0iMjQiIGN5PSIyNCIgcj0iMiIvPiYjeGE7ICAgIDxjaXJjbGUgZmlsbD0iI0M2MjgyOCIgY3g9IjI0IiBjeT0iMjQiIHI9IjEiLz4mI3hhOyAgICA8cmVjdCB4PSIyMiIgeT0iMSIgZmlsbD0iIzM3NDc0RiIgd2lkdGg9IjQiIGhlaWdodD0iMyIvPiYjeGE7ICAgIDxnIGZpbGw9IiMzNzQ3NEYiPiYjeGE7ICAgICAgICA8cGF0aCBkPSJNNDQuNCwxNi4yYzIuNS0zLjUsMi4xLTguNC0xLTExLjVjLTMuMS0zLjEtOC0zLjUtMTEuNS0xTDQ0LjQsMTYuMnoiLz4mI3hhOyAgICAgICAgPHBhdGggZD0iTTMuNiwxNi4yYy0yLjUtMy41LTIuMS04LjQsMS0xMS41YzMuMS0zLjEsOC0zLjUsMTEuNS0xTDMuNiwxNi4yeiIvPiYjeGE7ICAgIDwvZz4mI3hhOzwvc3ZnPg==;labelBackgroundColor=#ffffff;" parent="1" vertex="1">
          <mxGeometry x="554" y="100" width="48" height="48" as="geometry" />
        </mxCell>
        <mxCell id="8--HhbSZYtI3ddgJnD71-8" value="Business" style="shape=image;verticalLabelPosition=bottom;verticalAlign=top;imageAspect=0;aspect=fixed;image=data:image/svg+xml,PHN2ZyB4bWxucz0iaHR0cDovL3d3dy53My5vcmcvMjAwMC9zdmciIHZlcnNpb249IjEiIHZpZXdCb3g9IjAgMCA0OCA0OCIgZW5hYmxlLWJhY2tncm91bmQ9Im5ldyAwIDAgNDggNDgiPiYjeGE7ICAgIDxnIGZpbGw9IiMyNjMyMzgiPiYjeGE7ICAgICAgICA8cGF0aCBkPSJNMTEsNDRIOWMtMC42LDAtMS0wLjQtMS0xdi0yaDR2MkMxMiw0My42LDExLjYsNDQsMTEsNDR6Ii8+JiN4YTsgICAgICAgIDxwYXRoIGQ9Ik0zOSw0NGgtMmMtMC42LDAtMS0wLjQtMS0xdi0yaDR2MkM0MCw0My42LDM5LjYsNDQsMzksNDR6Ii8+JiN4YTsgICAgPC9nPiYjeGE7ICAgIDxwYXRoIGZpbGw9IiMzNzQ3NEYiIGQ9Ik0yNyw3aC02Yy0xLjcsMC0zLDEuMy0zLDN2M2gydi0zYzAtMC42LDAuNC0xLDEtMWg2YzAuNiwwLDEsMC40LDEsMXYzaDJ2LTNDMzAsOC4zLDI4LjcsNywyNyw3eiIvPiYjeGE7ICAgIDxwYXRoIGZpbGw9IiM3ODkwOUMiIGQ9Ik00MCw0M0g4Yy0yLjIsMC00LTEuOC00LTRWMTVjMC0yLjIsMS44LTQsNC00aDMyYzIuMiwwLDQsMS44LDQsNHYyNEM0NCw0MS4yLDQyLjIsNDMsNDAsNDN6Ii8+JiN4YTs8L3N2Zz4=;labelBackgroundColor=#ffffff;" parent="1" vertex="1">
          <mxGeometry x="358" y="490" width="48" height="48" as="geometry" />
        </mxCell>
        <mxCell id="8--HhbSZYtI3ddgJnD71-9" value="Report" style="shape=image;verticalLabelPosition=bottom;verticalAlign=top;imageAspect=0;aspect=fixed;image=data:image/svg+xml,PHN2ZyB4bWxucz0iaHR0cDovL3d3dy53My5vcmcvMjAwMC9zdmciIHZlcnNpb249IjEiIHZpZXdCb3g9IjAgMCA0OCA0OCIgZW5hYmxlLWJhY2tncm91bmQ9Im5ldyAwIDAgNDggNDgiPiYjeGE7ICAgIDxwYXRoIGZpbGw9IiM3ODkwOUMiIGQ9Ik00MCw0MUg4Yy0yLjIsMC00LTEuOC00LTRsMC0yMC45YzAtMS4zLDAuNi0yLjUsMS43LTMuM0wyNCwwbDE4LjMsMTIuOGMxLjEsMC43LDEuNywyLDEuNywzLjNWMzcgQzQ0LDM5LjIsNDIuMiw0MSw0MCw0MXoiLz4mI3hhOyAgICA8cmVjdCB4PSIxMiIgeT0iMTEiIGZpbGw9IiNmZmYiIHdpZHRoPSIyNCIgaGVpZ2h0PSIyMiIvPiYjeGE7ICAgIDxwb2x5Z29uIGZpbGw9IiM5QzI3QjAiIHBvaW50cz0iMjQsMTMuNiAxOCwyMS40IDMwLDIxLjQiLz4mI3hhOyAgICA8cGF0aCBmaWxsPSIjQ0ZEOERDIiBkPSJNNDAsNDFIOGMtMi4yLDAtNC0xLjgtNC00bDAtMjBsMjAsMTNsMjAtMTN2MjBDNDQsMzkuMiw0Mi4yLDQxLDQwLDQxeiIvPiYjeGE7ICAgIDxwb2x5Z29uIGZpbGw9IiM5QzI3QjAiIHBvaW50cz0iMjQsMjggMjYsMjYuNyAyNiwyMCAyMiwyMCAyMiwyNi43Ii8+JiN4YTs8L3N2Zz4=;labelBackgroundColor=#ffffff;" parent="1" vertex="1">
          <mxGeometry x="334" y="378" width="48" height="48" as="geometry" />
        </mxCell>
        <mxCell id="8--HhbSZYtI3ddgJnD71-10" value="Storage" style="shape=image;verticalLabelPosition=bottom;verticalAlign=top;imageAspect=0;aspect=fixed;image=data:image/svg+xml,PHN2ZyB4bWxucz0iaHR0cDovL3d3dy53My5vcmcvMjAwMC9zdmciIHZlcnNpb249IjEiIHZpZXdCb3g9IjAgMCA0OCA0OCIgZW5hYmxlLWJhY2tncm91bmQ9Im5ldyAwIDAgNDggNDgiPiYjeGE7ICAgIDxyZWN0IHg9IjEyIiB5PSI0NCIgZmlsbD0iIzI2MzIzOCIgd2lkdGg9IjQiIGhlaWdodD0iMiIvPiYjeGE7ICAgIDxyZWN0IHg9IjMyIiB5PSI0NCIgZmlsbD0iIzI2MzIzOCIgd2lkdGg9IjQiIGhlaWdodD0iMiIvPiYjeGE7ICAgIDxwYXRoIGZpbGw9IiM2MDdEOEIiIGQ9Ik04LDQxVjdjMC0yLjIsMS44LTQsNC00aDI0YzIuMiwwLDQsMS44LDQsNHYzNGMwLDIuMi0xLjgsNC00LDRIMTJDOS44LDQ1LDgsNDMuMiw4LDQxeiIvPiYjeGE7ICAgIDxwYXRoIGZpbGw9IiNCMEJFQzUiIGQ9Ik0xMiwxN1Y4YzAtMC42LDAuNC0xLDEtMWgyMmMwLjYsMCwxLDAuNCwxLDF2OUgxMnoiLz4mI3hhOyAgICA8cmVjdCB4PSIxMiIgeT0iMTkiIGZpbGw9IiNCMEJFQzUiIHdpZHRoPSIyNCIgaGVpZ2h0PSIxMCIvPiYjeGE7ICAgIDxwYXRoIGZpbGw9IiNCMEJFQzUiIGQ9Ik0xMiw0MHYtOWgyNHY5YzAsMC42LTAuNCwxLTEsMUgxM0MxMi40LDQxLDEyLDQwLjYsMTIsNDB6Ii8+JiN4YTsgICAgPHJlY3QgeD0iMjAiIHk9IjExIiBmaWxsPSIjNTQ2RTdBIiB3aWR0aD0iOCIgaGVpZ2h0PSIyIi8+JiN4YTsgICAgPHJlY3QgeD0iMjAiIHk9IjIzIiBmaWxsPSIjNTQ2RTdBIiB3aWR0aD0iOCIgaGVpZ2h0PSIyIi8+JiN4YTsgICAgPHJlY3QgeD0iMjAiIHk9IjM1IiBmaWxsPSIjNTQ2RTdBIiB3aWR0aD0iOCIgaGVpZ2h0PSIyIi8+JiN4YTs8L3N2Zz4=;labelBackgroundColor=#ffffff;" parent="1" vertex="1">
          <mxGeometry x="824" y="460" width="48" height="48" as="geometry" />
        </mxCell>
        <mxCell id="8--HhbSZYtI3ddgJnD71-11" value="Internet" style="shape=image;verticalLabelPosition=bottom;verticalAlign=top;imageAspect=0;aspect=fixed;image=data:image/svg+xml,PHN2ZyB4bWxucz0iaHR0cDovL3d3dy53My5vcmcvMjAwMC9zdmciIHZlcnNpb249IjEiIHZpZXdCb3g9IjAgMCA0OCA0OCIgZW5hYmxlLWJhY2tncm91bmQ9Im5ldyAwIDAgNDggNDgiPiYjeGE7ICAgIDxwYXRoIGZpbGw9IiM3Q0IzNDIiIGQ9Ik0yNCw0QzEzLDQsNCwxMyw0LDI0czksMjAsMjAsMjBzMjAtOSwyMC0yMFMzNSw0LDI0LDR6Ii8+JiN4YTsgICAgPHBhdGggZmlsbD0iIzAyNzdCRCIgZD0iTTQ1LDI0YzAsMTEuNy05LjUsMjEtMjEsMjFTMywzNS43LDMsMjRTMTIuMywzLDI0LDNTNDUsMTIuMyw0NSwyNHogTTIzLjgsMzMuN2MwLTAuNC0wLjItMC42LTAuNi0wLjggYy0xLjMtMC40LTIuNS0wLjQtMy42LTEuNWMtMC4yLTAuNC0wLjItMC44LTAuNC0xLjNjLTAuNC0wLjQtMS41LTAuNi0yLjEtMC44Yy0wLjgsMC0xLjcsMC0yLjcsMGMtMC40LDAtMS4xLDAtMS41LDAgYy0wLjYtMC4yLTEuMS0xLjEtMS41LTEuN2MwLTAuMiwwLTAuNi0wLjQtMC42Yy0wLjQtMC4yLTAuOCwwLjItMS4zLDBjLTAuMi0wLjItMC4yLTAuNC0wLjItMC42YzAtMC42LDAuNC0xLjMsMC44LTEuNyBjMC42LTAuNCwxLjMsMC4yLDEuOSwwLjJjMC4yLDAsMC4yLDAsMC40LDAuMmMwLjYsMC4yLDAuOCwxLDAuOCwxLjdjMCwwLjIsMCwwLjQsMCwwLjRjMCwwLjIsMC4yLDAuMiwwLjQsMC4yIGMwLjItMS4xLDAuMi0yLjEsMC40LTMuMmMwLTEuMywxLjMtMi41LDIuMy0yLjljMC40LTAuMiwwLjYsMC4yLDEuMSwwYzEuMy0wLjQsNC40LTEuNywzLjgtMy40Yy0wLjQtMS41LTEuNy0yLjktMy40LTIuNyBjLTAuNCwwLjItMC42LDAuNC0xLDAuNmMtMC42LDAuNC0xLjksMS43LTIuNSwxLjdjLTEuMS0wLjItMS4xLTEuNy0wLjgtMi4zYzAuMi0wLjgsMi4xLTMuNiwzLjQtMy4xYzAuMiwwLjIsMC42LDAuNiwwLjgsMC44IGMwLjQsMC4yLDEuMSwwLjIsMS43LDAuMmMwLjIsMCwwLjQsMCwwLjYtMC4yYzAuMi0wLjIsMC4yLTAuMiwwLjItMC40YzAtMC42LTAuNi0xLjMtMS0xLjdjLTAuNC0wLjQtMS4xLTAuOC0xLjctMS4xIGMtMi4xLTAuNi01LjUsMC4yLTcuMSwxLjdzLTIuOSw0LTMuOCw2LjFjLTAuNCwxLjMtMC44LDIuOS0xLDQuNGMtMC4yLDEtMC40LDEuOSwwLjIsMi45YzAuNiwxLjMsMS45LDIuNSwzLjIsMy40IGMwLjgsMC42LDIuNSwwLjYsMy40LDEuN2MwLjYsMC44LDAuNCwxLjksMC40LDIuOWMwLDEuMywwLjgsMi4zLDEuMywzLjRjMC4yLDAuNiwwLjQsMS41LDAuNiwyLjFjMCwwLjIsMC4yLDEuNSwwLjIsMS43IGMxLjMsMC42LDIuMywxLjMsMy44LDEuN2MwLjIsMCwxLTEuMywxLTEuNWMwLjYtMC42LDEuMS0xLjUsMS43LTEuOWMwLjQtMC4yLDAuOC0wLjQsMS4zLTAuOGMwLjQtMC40LDAuNi0xLjMsMC44LTEuOSBDMjMuOCwzNS4xLDI0LDM0LjMsMjMuOCwzMy43eiBNMjQuMiwxNC4zYzAuMiwwLDAuNC0wLjIsMC44LTAuNGMwLjYtMC40LDEuMy0xLjEsMS45LTEuNWMwLjYtMC40LDEuMy0xLjEsMS43LTEuNSBjMC42LTAuNCwxLjEtMS4zLDEuMy0xLjljMC4yLTAuNCwwLjgtMS4zLDAuNi0xLjljLTAuMi0wLjQtMS4zLTAuNi0xLjctMC44Yy0xLjctMC40LTMuMS0wLjYtNC44LTAuNmMtMC42LDAtMS41LDAuMi0xLjcsMC44IGMtMC4yLDEuMSwwLjYsMC44LDEuNSwxLjFjMCwwLDAuMiwxLjcsMC4yLDEuOWMwLjIsMS0wLjQsMS43LTAuNCwyLjdjMCwwLjYsMCwxLjcsMC40LDIuMUwyNC4yLDE0LjN6IE00MS44LDI5IGMwLjItMC40LDAuMi0xLjEsMC40LTEuNWMwLjItMSwwLjItMi4xLDAuMi0zLjFjMC0yLjEtMC4yLTQuMi0wLjgtNi4xYy0wLjQtMC42LTAuNi0xLjMtMC44LTEuOWMtMC40LTEuMS0xLTIuMS0xLjktMi45IGMtMC44LTEuMS0xLjktNC0zLjgtMy4xYy0wLjYsMC4yLTEsMS0xLjUsMS41Yy0wLjQsMC42LTAuOCwxLjMtMS4zLDEuOWMtMC4yLDAuMi0wLjQsMC42LTAuMiwwLjhjMCwwLjIsMC4yLDAuMiwwLjQsMC4yIGMwLjQsMC4yLDAuNiwwLjIsMSwwLjRjMC4yLDAsMC40LDAuMiwwLjIsMC40YzAsMCwwLDAuMi0wLjIsMC4yYy0xLDEuMS0yLjEsMS45LTMuMSwyLjljLTAuMiwwLjItMC40LDAuNi0wLjQsMC44IGMwLDAuMiwwLjIsMC4yLDAuMiwwLjRjMCwwLjItMC4yLDAuMi0wLjQsMC40Yy0wLjQsMC4yLTAuOCwwLjQtMS4xLDAuNmMtMC4yLDAuNCwwLDEuMS0wLjIsMS41Yy0wLjIsMS4xLTAuOCwxLjktMS4zLDIuOSBjLTAuNCwwLjYtMC42LDEuMy0xLDEuOWMwLDAuOC0wLjIsMS41LDAuMiwyLjFjMSwxLjUsMi45LDAuNiw0LjQsMS4zYzAuNCwwLjIsMC44LDAuMiwxLjEsMC42YzAuNiwwLjYsMC42LDEuNywwLjgsMi4zIGMwLjIsMC44LDAuNCwxLjcsMC44LDIuNWMwLjIsMSwwLjYsMi4xLDAuOCwyLjljMS45LTEuNSwzLjYtMy4xLDQuOC01LjJDNDAuNiwzMi40LDQxLjIsMzAuNyw0MS44LDI5eiIvPiYjeGE7PC9zdmc+;labelBackgroundColor=#ffffff;" parent="1" vertex="1">
          <mxGeometry x="684" y="250" width="48" height="48" as="geometry" />
        </mxCell>
        <mxCell id="8--HhbSZYtI3ddgJnD71-12" value="Security" style="shape=image;verticalLabelPosition=bottom;verticalAlign=top;imageAspect=0;aspect=fixed;image=data:image/svg+xml,PHN2ZyB4bWxucz0iaHR0cDovL3d3dy53My5vcmcvMjAwMC9zdmciIHZlcnNpb249IjEiIHZpZXdCb3g9IjAgMCA0OCA0OCIgZW5hYmxlLWJhY2tncm91bmQ9Im5ldyAwIDAgNDggNDgiPiYjeGE7ICAgIDxwYXRoIGZpbGw9IiM0MjQyNDIiIGQ9Ik0yNCw0Yy01LjUsMC0xMCw0LjUtMTAsMTB2NGg0di00YzAtMy4zLDIuNy02LDYtNnM2LDIuNyw2LDZ2NGg0di00QzM0LDguNSwyOS41LDQsMjQsNHoiLz4mI3hhOyAgICA8cGF0aCBmaWxsPSIjRkI4QzAwIiBkPSJNMzYsNDRIMTJjLTIuMiwwLTQtMS44LTQtNFYyMmMwLTIuMiwxLjgtNCw0LTRoMjRjMi4yLDAsNCwxLjgsNCw0djE4QzQwLDQyLjIsMzguMiw0NCwzNiw0NHoiLz4mI3hhOyAgICA8Y2lyY2xlIGZpbGw9IiNDNzZFMDAiIGN4PSIyNCIgY3k9IjMxIiByPSIzIi8+JiN4YTs8L3N2Zz4=;labelBackgroundColor=#ffffff;" parent="1" vertex="1">
          <mxGeometry x="323" y="220" width="48" height="48" as="geometry" />
        </mxCell>
        <mxCell id="8--HhbSZYtI3ddgJnD71-13" value="Calendar" style="shape=image;verticalLabelPosition=bottom;verticalAlign=top;imageAspect=0;aspect=fixed;image=data:image/svg+xml,PHN2ZyB4bWxucz0iaHR0cDovL3d3dy53My5vcmcvMjAwMC9zdmciIHZlcnNpb249IjEiIHZpZXdCb3g9IjAgMCA0OCA0OCIgZW5hYmxlLWJhY2tncm91bmQ9Im5ldyAwIDAgNDggNDgiPiYjeGE7ICAgIDxwYXRoIGZpbGw9IiNDRkQ4REMiIGQ9Ik01LDM4VjE0aDM4djI0YzAsMi4yLTEuOCw0LTQsNEg5QzYuOCw0Miw1LDQwLjIsNSwzOHoiLz4mI3hhOyAgICA8cGF0aCBmaWxsPSIjRjQ0MzM2IiBkPSJNNDMsMTB2Nkg1di02YzAtMi4yLDEuOC00LDQtNGgzMEM0MS4yLDYsNDMsNy44LDQzLDEweiIvPiYjeGE7ICAgIDxnIGZpbGw9IiNCNzFDMUMiPiYjeGE7ICAgICAgICA8Y2lyY2xlIGN4PSIzMyIgY3k9IjEwIiByPSIzIi8+JiN4YTsgICAgICAgIDxjaXJjbGUgY3g9IjE1IiBjeT0iMTAiIHI9IjMiLz4mI3hhOyAgICA8L2c+JiN4YTsgICAgPGcgZmlsbD0iI0IwQkVDNSI+JiN4YTsgICAgICAgIDxwYXRoIGQ9Ik0zMywzYy0xLjEsMC0yLDAuOS0yLDJ2NWMwLDEuMSwwLjksMiwyLDJzMi0wLjksMi0yVjVDMzUsMy45LDM0LjEsMywzMywzeiIvPiYjeGE7ICAgICAgICA8cGF0aCBkPSJNMTUsM2MtMS4xLDAtMiwwLjktMiwydjVjMCwxLjEsMC45LDIsMiwyczItMC45LDItMlY1QzE3LDMuOSwxNi4xLDMsMTUsM3oiLz4mI3hhOyAgICA8L2c+JiN4YTsgICAgPGcgZmlsbD0iI0IwQkVDNSI+JiN4YTsgICAgICAgIDxyZWN0IHg9IjEzIiB5PSIyMSIgd2lkdGg9IjYiIGhlaWdodD0iNiIvPiYjeGE7ICAgICAgICA8cmVjdCB4PSIyMSIgeT0iMjEiIHdpZHRoPSI2IiBoZWlnaHQ9IjYiLz4mI3hhOyAgICAgICAgPHJlY3QgeD0iMjkiIHk9IjIxIiB3aWR0aD0iNiIgaGVpZ2h0PSI2Ii8+JiN4YTsgICAgICAgIDxyZWN0IHg9IjEzIiB5PSIyOSIgd2lkdGg9IjYiIGhlaWdodD0iNiIvPiYjeGE7ICAgICAgICA8cmVjdCB4PSIyMSIgeT0iMjkiIHdpZHRoPSI2IiBoZWlnaHQ9IjYiLz4mI3hhOyAgICA8L2c+JiN4YTsgICAgPHJlY3QgeD0iMjkiIHk9IjI5IiBmaWxsPSIjRjQ0MzM2IiB3aWR0aD0iNiIgaGVpZ2h0PSI2Ii8+JiN4YTs8L3N2Zz4=;labelBackgroundColor=#ffffff;" parent="1" vertex="1">
          <mxGeometry x="810" y="130" width="48" height="48" as="geometry" />
        </mxCell>
        <mxCell id="8--HhbSZYtI3ddgJnD71-14" value="Analytics" style="shape=image;verticalLabelPosition=bottom;verticalAlign=top;imageAspect=0;aspect=fixed;image=data:image/svg+xml,PHN2ZyB4bWxucz0iaHR0cDovL3d3dy53My5vcmcvMjAwMC9zdmciIHZlcnNpb249IjEiIHZpZXdCb3g9IjAgMCA0OCA0OCIgZW5hYmxlLWJhY2tncm91bmQ9Im5ldyAwIDAgNDggNDgiPiYjeGE7ICAgIDxwb2x5Z29uIGZpbGw9IiM5MENBRjkiIHBvaW50cz0iMzYuOSwxMy44IDM1LjEsMTAuMiA3LjUsMjQgMzUuMSwzNy44IDM2LjksMzQuMiAxNi41LDI0Ii8+JiN4YTsgICAgPHJlY3QgeD0iNiIgeT0iMTgiIGZpbGw9IiNEODFCNjAiIHdpZHRoPSIxMiIgaGVpZ2h0PSIxMiIvPiYjeGE7ICAgIDxnIGZpbGw9IiMyMTk2RjMiPiYjeGE7ICAgICAgICA8cmVjdCB4PSIzMCIgeT0iNiIgd2lkdGg9IjEyIiBoZWlnaHQ9IjEyIi8+JiN4YTsgICAgICAgIDxyZWN0IHg9IjMwIiB5PSIzMCIgd2lkdGg9IjEyIiBoZWlnaHQ9IjEyIi8+JiN4YTsgICAgPC9nPiYjeGE7PC9zdmc+;labelBackgroundColor=#ffffff;" parent="1" vertex="1">
          <mxGeometry x="576" y="514" width="48" height="48" as="geometry" />
        </mxCell>
        <mxCell id="8--HhbSZYtI3ddgJnD71-15" value="Store" style="shape=image;verticalLabelPosition=bottom;verticalAlign=top;imageAspect=0;aspect=fixed;image=data:image/svg+xml,PHN2ZyB4bWxucz0iaHR0cDovL3d3dy53My5vcmcvMjAwMC9zdmciIHZlcnNpb249IjEiIHZpZXdCb3g9IjAgMCA0OCA0OCIgZW5hYmxlLWJhY2tncm91bmQ9Im5ldyAwIDAgNDggNDgiPiYjeGE7ICAgIDxyZWN0IHg9IjUiIHk9IjE5IiBmaWxsPSIjQ0ZEOERDIiB3aWR0aD0iMzgiIGhlaWdodD0iMTkiLz4mI3hhOyAgICA8cmVjdCB4PSI1IiB5PSIzOCIgZmlsbD0iI0IwQkVDNSIgd2lkdGg9IjM4IiBoZWlnaHQ9IjQiLz4mI3hhOyAgICA8cmVjdCB4PSIyNyIgeT0iMjQiIGZpbGw9IiM0NTVBNjQiIHdpZHRoPSIxMiIgaGVpZ2h0PSIxOCIvPiYjeGE7ICAgIDxyZWN0IHg9IjkiIHk9IjI0IiBmaWxsPSIjRTNGMkZEIiB3aWR0aD0iMTQiIGhlaWdodD0iMTEiLz4mI3hhOyAgICA8cmVjdCB4PSIxMCIgeT0iMjUiIGZpbGw9IiMxRTg4RTUiIHdpZHRoPSIxMiIgaGVpZ2h0PSI5Ii8+JiN4YTsgICAgPHBhdGggZmlsbD0iIzkwQTRBRSIgZD0iTTM2LjUsMzMuNWMtMC4zLDAtMC41LDAuMi0wLjUsMC41djJjMCwwLjMsMC4yLDAuNSwwLjUsMC41UzM3LDM2LjMsMzcsMzZ2LTJDMzcsMzMuNywzNi44LDMzLjUsMzYuNSwzMy41eiIvPiYjeGE7ICAgIDxnIGZpbGw9IiM1NThCMkYiPiYjeGE7ICAgICAgICA8Y2lyY2xlIGN4PSIyNCIgY3k9IjE5IiByPSIzIi8+JiN4YTsgICAgICAgIDxjaXJjbGUgY3g9IjM2IiBjeT0iMTkiIHI9IjMiLz4mI3hhOyAgICAgICAgPGNpcmNsZSBjeD0iMTIiIGN5PSIxOSIgcj0iMyIvPiYjeGE7ICAgIDwvZz4mI3hhOyAgICA8cGF0aCBmaWxsPSIjN0NCMzQyIiBkPSJNNDAsNkg4QzYuOSw2LDYsNi45LDYsOHYzaDM2VjhDNDIsNi45LDQxLjEsNiw0MCw2eiIvPiYjeGE7ICAgIDxyZWN0IHg9IjIxIiB5PSIxMSIgZmlsbD0iIzdDQjM0MiIgd2lkdGg9IjYiIGhlaWdodD0iOCIvPiYjeGE7ICAgIDxwb2x5Z29uIGZpbGw9IiM3Q0IzNDIiIHBvaW50cz0iMzcsMTEgMzIsMTEgMzMsMTkgMzksMTkiLz4mI3hhOyAgICA8cG9seWdvbiBmaWxsPSIjN0NCMzQyIiBwb2ludHM9IjExLDExIDE2LDExIDE1LDE5IDksMTkiLz4mI3hhOyAgICA8ZyBmaWxsPSIjRkZBMDAwIj4mI3hhOyAgICAgICAgPGNpcmNsZSBjeD0iMzAiIGN5PSIxOSIgcj0iMyIvPiYjeGE7ICAgICAgICA8cGF0aCBkPSJNNDUsMTljMCwxLjctMS4zLDMtMywzcy0zLTEuMy0zLTNzMS4zLTMsMy0zTDQ1LDE5eiIvPiYjeGE7ICAgICAgICA8Y2lyY2xlIGN4PSIxOCIgY3k9IjE5IiByPSIzIi8+JiN4YTsgICAgICAgIDxwYXRoIGQ9Ik0zLDE5YzAsMS43LDEuMywzLDMsM3MzLTEuMywzLTNzLTEuMy0zLTMtM0wzLDE5eiIvPiYjeGE7ICAgIDwvZz4mI3hhOyAgICA8ZyBmaWxsPSIjRkZDMTA3Ij4mI3hhOyAgICAgICAgPHBvbHlnb24gcG9pbnRzPSIzMiwxMSAyNywxMSAyNywxOSAzMywxOSIvPiYjeGE7ICAgICAgICA8cG9seWdvbiBwb2ludHM9IjQyLDExIDM3LDExIDM5LDE5IDQ1LDE5Ii8+JiN4YTsgICAgICAgIDxwb2x5Z29uIHBvaW50cz0iMTYsMTEgMjEsMTEgMjEsMTkgMTUsMTkiLz4mI3hhOyAgICAgICAgPHBvbHlnb24gcG9pbnRzPSI2LDExIDExLDExIDksMTkgMywxOSIvPiYjeGE7ICAgIDwvZz4mI3hhOzwvc3ZnPg==;labelBackgroundColor=#ffffff;" parent="1" vertex="1">
          <mxGeometry x="458" y="508" width="48" height="48" as="geometry" />
        </mxCell>
        <mxCell id="8--HhbSZYtI3ddgJnD71-16" value="User" style="shape=image;verticalLabelPosition=bottom;verticalAlign=top;imageAspect=0;aspect=fixed;image=data:image/svg+xml,PHN2ZyB4bWxucz0iaHR0cDovL3d3dy53My5vcmcvMjAwMC9zdmciIHZlcnNpb249IjEiIHZpZXdCb3g9IjAgMCA0OCA0OCIgZW5hYmxlLWJhY2tncm91bmQ9Im5ldyAwIDAgNDggNDgiPiYjeGE7ICAgIDxwb2x5Z29uIGZpbGw9IiNGRjk4MDAiIHBvaW50cz0iMjQsMzcgMTksMzEgMTksMjUgMjksMjUgMjksMzEiLz4mI3hhOyAgICA8ZyBmaWxsPSIjRkZBNzI2Ij4mI3hhOyAgICAgICAgPGNpcmNsZSBjeD0iMzMiIGN5PSIxOSIgcj0iMiIvPiYjeGE7ICAgICAgICA8Y2lyY2xlIGN4PSIxNSIgY3k9IjE5IiByPSIyIi8+JiN4YTsgICAgPC9nPiYjeGE7ICAgIDxwYXRoIGZpbGw9IiNGRkI3NEQiIGQ9Ik0zMywxM2MwLTcuNi0xOC01LTE4LDBjMCwxLjEsMCw1LjksMCw3YzAsNSw0LDksOSw5czktNCw5LTlDMzMsMTguOSwzMywxNC4xLDMzLDEzeiIvPiYjeGE7ICAgIDxwYXRoIGZpbGw9IiM0MjQyNDIiIGQ9Ik0yNCw0Yy02LjEsMC0xMCw0LjktMTAsMTFjMCwwLjgsMCwyLjMsMCwyLjNsMiwxLjd2LTVsMTItNGw0LDR2NWwyLTEuN2MwLDAsMC0xLjUsMC0yLjNjMC00LTEtOC02LTlsLTEtMiBIMjR6Ii8+JiN4YTsgICAgPGcgZmlsbD0iIzc4NDcxOSI+JiN4YTsgICAgICAgIDxjaXJjbGUgY3g9IjI4IiBjeT0iMTkiIHI9IjEiLz4mI3hhOyAgICAgICAgPGNpcmNsZSBjeD0iMjAiIGN5PSIxOSIgcj0iMSIvPiYjeGE7ICAgIDwvZz4mI3hhOyAgICA8cG9seWdvbiBmaWxsPSIjZmZmIiBwb2ludHM9IjI0LDQzIDE5LDMxIDI0LDMyIDI5LDMxIi8+JiN4YTsgICAgPHBvbHlnb24gZmlsbD0iI0QzMkYyRiIgcG9pbnRzPSIyMywzNSAyMi4zLDM5LjUgMjQsNDMuNSAyNS43LDM5LjUgMjUsMzUgMjYsMzQgMjQsMzIgMjIsMzQiLz4mI3hhOyAgICA8cGF0aCBmaWxsPSIjNTQ2RTdBIiBkPSJNMjksMzFMMjksMzFsLTUsMTJsLTUtMTJjMCwwLTExLDItMTEsMTNoMzJDNDAsMzMsMjksMzEsMjksMzF6Ii8+JiN4YTs8L3N2Zz4=;labelBackgroundColor=#ffffff;" parent="1" vertex="1">
          <mxGeometry x="204" y="94" width="48" height="48" as="geometry" />
        </mxCell>
        <mxCell id="8--HhbSZYtI3ddgJnD71-17" value="User" style="shape=image;verticalLabelPosition=bottom;verticalAlign=top;imageAspect=0;aspect=fixed;image=data:image/svg+xml,PHN2ZyB4bWxucz0iaHR0cDovL3d3dy53My5vcmcvMjAwMC9zdmciIHZlcnNpb249IjEiIHZpZXdCb3g9IjAgMCA0OCA0OCIgZW5hYmxlLWJhY2tncm91bmQ9Im5ldyAwIDAgNDggNDgiPiYjeGE7ICAgIDxwb2x5Z29uIGZpbGw9IiNGRjk4MDAiIHBvaW50cz0iMjQsMzcgMTksMzEgMTksMjUgMjksMjUgMjksMzEiLz4mI3hhOyAgICA8ZyBmaWxsPSIjRkZBNzI2Ij4mI3hhOyAgICAgICAgPGNpcmNsZSBjeD0iMzMiIGN5PSIxOSIgcj0iMiIvPiYjeGE7ICAgICAgICA8Y2lyY2xlIGN4PSIxNSIgY3k9IjE5IiByPSIyIi8+JiN4YTsgICAgPC9nPiYjeGE7ICAgIDxwYXRoIGZpbGw9IiNGRkI3NEQiIGQ9Ik0zMywxM2MwLTcuNi0xOC01LTE4LDBjMCwxLjEsMCw1LjksMCw3YzAsNSw0LDksOSw5czktNCw5LTlDMzMsMTguOSwzMywxNC4xLDMzLDEzeiIvPiYjeGE7ICAgIDxwYXRoIGZpbGw9IiM0MjQyNDIiIGQ9Ik0yNCw0Yy02LjEsMC0xMCw0LjktMTAsMTFjMCwwLjgsMCwyLjMsMCwyLjNsMiwxLjd2LTVsMTItNGw0LDR2NWwyLTEuN2MwLDAsMC0xLjUsMC0yLjNjMC00LTEtOC02LTlsLTEtMiBIMjR6Ii8+JiN4YTsgICAgPGcgZmlsbD0iIzc4NDcxOSI+JiN4YTsgICAgICAgIDxjaXJjbGUgY3g9IjI4IiBjeT0iMTkiIHI9IjEiLz4mI3hhOyAgICAgICAgPGNpcmNsZSBjeD0iMjAiIGN5PSIxOSIgcj0iMSIvPiYjeGE7ICAgIDwvZz4mI3hhOyAgICA8cG9seWdvbiBmaWxsPSIjZmZmIiBwb2ludHM9IjI0LDQzIDE5LDMxIDI0LDMyIDI5LDMxIi8+JiN4YTsgICAgPHBvbHlnb24gZmlsbD0iI0QzMkYyRiIgcG9pbnRzPSIyMywzNSAyMi4zLDM5LjUgMjQsNDMuNSAyNS43LDM5LjUgMjUsMzUgMjYsMzQgMjQsMzIgMjIsMzQiLz4mI3hhOyAgICA8cGF0aCBmaWxsPSIjNTQ2RTdBIiBkPSJNMjksMzFMMjksMzFsLTUsMTJsLTUtMTJjMCwwLTExLDItMTEsMTNoMzJDNDAsMzMsMjksMzEsMjksMzF6Ii8+JiN4YTs8L3N2Zz4=;labelBackgroundColor=#ffffff;" parent="1" vertex="1">
          <mxGeometry x="394" y="106" width="48" height="48" as="geometry" />
        </mxCell>
        <mxCell id="8--HhbSZYtI3ddgJnD71-18" value="User" style="shape=image;verticalLabelPosition=bottom;verticalAlign=top;imageAspect=0;aspect=fixed;image=data:image/svg+xml,PHN2ZyB4bWxucz0iaHR0cDovL3d3dy53My5vcmcvMjAwMC9zdmciIHZlcnNpb249IjEiIHZpZXdCb3g9IjAgMCA0OCA0OCIgZW5hYmxlLWJhY2tncm91bmQ9Im5ldyAwIDAgNDggNDgiPiYjeGE7ICAgIDxwb2x5Z29uIGZpbGw9IiNGRjk4MDAiIHBvaW50cz0iMjQsMzcgMTksMzEgMTksMjUgMjksMjUgMjksMzEiLz4mI3hhOyAgICA8ZyBmaWxsPSIjRkZBNzI2Ij4mI3hhOyAgICAgICAgPGNpcmNsZSBjeD0iMzMiIGN5PSIxOSIgcj0iMiIvPiYjeGE7ICAgICAgICA8Y2lyY2xlIGN4PSIxNSIgY3k9IjE5IiByPSIyIi8+JiN4YTsgICAgPC9nPiYjeGE7ICAgIDxwYXRoIGZpbGw9IiNGRkI3NEQiIGQ9Ik0zMywxM2MwLTcuNi0xOC01LTE4LDBjMCwxLjEsMCw1LjksMCw3YzAsNSw0LDksOSw5czktNCw5LTlDMzMsMTguOSwzMywxNC4xLDMzLDEzeiIvPiYjeGE7ICAgIDxwYXRoIGZpbGw9IiM0MjQyNDIiIGQ9Ik0yNCw0Yy02LjEsMC0xMCw0LjktMTAsMTFjMCwwLjgsMCwyLjMsMCwyLjNsMiwxLjd2LTVsMTItNGw0LDR2NWwyLTEuN2MwLDAsMC0xLjUsMC0yLjNjMC00LTEtOC02LTlsLTEtMiBIMjR6Ii8+JiN4YTsgICAgPGcgZmlsbD0iIzc4NDcxOSI+JiN4YTsgICAgICAgIDxjaXJjbGUgY3g9IjI4IiBjeT0iMTkiIHI9IjEiLz4mI3hhOyAgICAgICAgPGNpcmNsZSBjeD0iMjAiIGN5PSIxOSIgcj0iMSIvPiYjeGE7ICAgIDwvZz4mI3hhOyAgICA8cG9seWdvbiBmaWxsPSIjZmZmIiBwb2ludHM9IjI0LDQzIDE5LDMxIDI0LDMyIDI5LDMxIi8+JiN4YTsgICAgPHBvbHlnb24gZmlsbD0iI0QzMkYyRiIgcG9pbnRzPSIyMywzNSAyMi4zLDM5LjUgMjQsNDMuNSAyNS43LDM5LjUgMjUsMzUgMjYsMzQgMjQsMzIgMjIsMzQiLz4mI3hhOyAgICA8cGF0aCBmaWxsPSIjNTQ2RTdBIiBkPSJNMjksMzFMMjksMzFsLTUsMTJsLTUtMTJjMCwwLTExLDItMTEsMTNoMzJDNDAsMzMsMjksMzEsMjksMzF6Ii8+JiN4YTs8L3N2Zz4=;labelBackgroundColor=#ffffff;" parent="1" vertex="1">
          <mxGeometry x="299" y="70" width="48" height="48" as="geometry" />
        </mxCell>
        <mxCell id="8--HhbSZYtI3ddgJnD71-19" value="Security" style="shape=image;verticalLabelPosition=bottom;verticalAlign=top;imageAspect=0;aspect=fixed;image=data:image/svg+xml,PHN2ZyB4bWxucz0iaHR0cDovL3d3dy53My5vcmcvMjAwMC9zdmciIHZlcnNpb249IjEiIHZpZXdCb3g9IjAgMCA0OCA0OCIgZW5hYmxlLWJhY2tncm91bmQ9Im5ldyAwIDAgNDggNDgiPiYjeGE7ICAgIDxwYXRoIGZpbGw9IiM0MjQyNDIiIGQ9Ik0yNCw0Yy01LjUsMC0xMCw0LjUtMTAsMTB2NGg0di00YzAtMy4zLDIuNy02LDYtNnM2LDIuNyw2LDZ2NGg0di00QzM0LDguNSwyOS41LDQsMjQsNHoiLz4mI3hhOyAgICA8cGF0aCBmaWxsPSIjRkI4QzAwIiBkPSJNMzYsNDRIMTJjLTIuMiwwLTQtMS44LTQtNFYyMmMwLTIuMiwxLjgtNCw0LTRoMjRjMi4yLDAsNCwxLjgsNCw0djE4QzQwLDQyLjIsMzguMiw0NCwzNiw0NHoiLz4mI3hhOyAgICA8Y2lyY2xlIGZpbGw9IiNDNzZFMDAiIGN4PSIyNCIgY3k9IjMxIiByPSIzIi8+JiN4YTs8L3N2Zz4=;labelBackgroundColor=#ffffff;" parent="1" vertex="1">
          <mxGeometry x="550" y="378" width="48" height="48" as="geometry" />
        </mxCell>
      </root>
    </mxGraphModel>
  </diagram>
  <diagram name="0-simple_web_stack" id="IZQjcdXx3PgNt2_q1xDP">
    <mxGraphModel dx="1235" dy="1640" grid="1" gridSize="10" guides="1" tooltips="1" connect="1" arrows="1" fold="1" page="1" pageScale="1" pageWidth="1169" pageHeight="827" math="0" shadow="0">
      <root>
        <mxCell id="rnp1drjSajc5SDvifTcA-0" />
        <mxCell id="rnp1drjSajc5SDvifTcA-1" parent="rnp1drjSajc5SDvifTcA-0" />
        <mxCell id="bF-3LTAqEb_aoyGkfJVP-9" value="" style="group;rounded=1;" vertex="1" connectable="0" parent="rnp1drjSajc5SDvifTcA-1">
          <mxGeometry x="302.28285714285715" y="22.9" width="103.71428571428572" height="107.10428571428571" as="geometry" />
        </mxCell>
        <mxCell id="bF-3LTAqEb_aoyGkfJVP-5" value="User&#39;s Device&lt;br&gt;" style="text;strokeColor=none;align=center;fillColor=none;html=1;verticalAlign=middle;whiteSpace=wrap;rounded=1;fontSize=16;" vertex="1" parent="bF-3LTAqEb_aoyGkfJVP-9">
          <mxGeometry y="70.88999999999999" width="103.71428571428572" height="36.214285714285715" as="geometry" />
        </mxCell>
        <mxCell id="bF-3LTAqEb_aoyGkfJVP-0" value="" style="shape=image;verticalLabelPosition=bottom;verticalAlign=top;imageAspect=0;aspect=fixed;image=data:image/svg+xml,PHN2ZyB4bWxucz0iaHR0cDovL3d3dy53My5vcmcvMjAwMC9zdmciIHZlcnNpb249IjEiIHZpZXdCb3g9IjAgMCA0OCA0OCIgZW5hYmxlLWJhY2tncm91bmQ9Im5ldyAwIDAgNDggNDgiPiYjeGE7ICAgIDxwYXRoIGZpbGw9IiMzNzQ3NEYiIGQ9Ik04LDQxVjdjMC0yLjIsMS44LTQsNC00aDI0YzIuMiwwLDQsMS44LDQsNHYzNGMwLDIuMi0xLjgsNC00LDRIMTJDOS44LDQ1LDgsNDMuMiw4LDQxeiIvPiYjeGE7ICAgIDxwYXRoIGZpbGw9IiNCQkRFRkIiIGQ9Ik0zNiw2SDEyYy0wLjYsMC0xLDAuNC0xLDF2MzFjMCwwLjYsMC40LDEsMSwxaDI0YzAuNiwwLDEtMC40LDEtMVY3QzM3LDYuNCwzNi42LDYsMzYsNnoiLz4mI3hhOyAgICA8cmVjdCB4PSIyMSIgeT0iNDEiIGZpbGw9IiM3ODkwOUMiIHdpZHRoPSI2IiBoZWlnaHQ9IjIiLz4mI3hhOzwvc3ZnPg==;fontSize=16;rounded=1;" vertex="1" parent="bF-3LTAqEb_aoyGkfJVP-9">
          <mxGeometry x="19.357142857142833" y="5.889999999999997" width="65" height="65" as="geometry" />
        </mxCell>
        <mxCell id="bF-3LTAqEb_aoyGkfJVP-12" value="" style="group;rounded=1;" vertex="1" connectable="0" parent="rnp1drjSajc5SDvifTcA-1">
          <mxGeometry x="906" y="190" width="100" height="78" as="geometry" />
        </mxCell>
        <mxCell id="bF-3LTAqEb_aoyGkfJVP-11" value="[8.8.8.8]" style="text;strokeColor=none;align=center;fillColor=none;html=1;verticalAlign=middle;whiteSpace=wrap;rounded=1;fontSize=16;" vertex="1" parent="bF-3LTAqEb_aoyGkfJVP-12">
          <mxGeometry x="-5.86" y="48" width="100" height="30" as="geometry" />
        </mxCell>
        <mxCell id="bF-3LTAqEb_aoyGkfJVP-55" style="edgeStyle=none;curved=1;rounded=1;orthogonalLoop=1;jettySize=auto;html=1;fontSize=12;startSize=8;endSize=8;" edge="1" parent="bF-3LTAqEb_aoyGkfJVP-12" source="bF-3LTAqEb_aoyGkfJVP-16">
          <mxGeometry relative="1" as="geometry">
            <mxPoint x="-156" y="60" as="targetPoint" />
          </mxGeometry>
        </mxCell>
        <mxCell id="bF-3LTAqEb_aoyGkfJVP-16" value="" style="shape=image;verticalLabelPosition=bottom;verticalAlign=top;imageAspect=0;aspect=fixed;image=data:image/svg+xml,PHN2ZyB4bWxucz0iaHR0cDovL3d3dy53My5vcmcvMjAwMC9zdmciIHZlcnNpb249IjEiIHZpZXdCb3g9IjAgMCA0OCA0OCIgZW5hYmxlLWJhY2tncm91bmQ9Im5ldyAwIDAgNDggNDgiPiYjeGE7ICAgIDxwYXRoIGZpbGw9IiM3Q0IzNDIiIGQ9Ik0yNCw0QzEzLDQsNCwxMyw0LDI0czksMjAsMjAsMjBzMjAtOSwyMC0yMFMzNSw0LDI0LDR6Ii8+JiN4YTsgICAgPHBhdGggZmlsbD0iIzAyNzdCRCIgZD0iTTQ1LDI0YzAsMTEuNy05LjUsMjEtMjEsMjFTMywzNS43LDMsMjRTMTIuMywzLDI0LDNTNDUsMTIuMyw0NSwyNHogTTIzLjgsMzMuN2MwLTAuNC0wLjItMC42LTAuNi0wLjggYy0xLjMtMC40LTIuNS0wLjQtMy42LTEuNWMtMC4yLTAuNC0wLjItMC44LTAuNC0xLjNjLTAuNC0wLjQtMS41LTAuNi0yLjEtMC44Yy0wLjgsMC0xLjcsMC0yLjcsMGMtMC40LDAtMS4xLDAtMS41LDAgYy0wLjYtMC4yLTEuMS0xLjEtMS41LTEuN2MwLTAuMiwwLTAuNi0wLjQtMC42Yy0wLjQtMC4yLTAuOCwwLjItMS4zLDBjLTAuMi0wLjItMC4yLTAuNC0wLjItMC42YzAtMC42LDAuNC0xLjMsMC44LTEuNyBjMC42LTAuNCwxLjMsMC4yLDEuOSwwLjJjMC4yLDAsMC4yLDAsMC40LDAuMmMwLjYsMC4yLDAuOCwxLDAuOCwxLjdjMCwwLjIsMCwwLjQsMCwwLjRjMCwwLjIsMC4yLDAuMiwwLjQsMC4yIGMwLjItMS4xLDAuMi0yLjEsMC40LTMuMmMwLTEuMywxLjMtMi41LDIuMy0yLjljMC40LTAuMiwwLjYsMC4yLDEuMSwwYzEuMy0wLjQsNC40LTEuNywzLjgtMy40Yy0wLjQtMS41LTEuNy0yLjktMy40LTIuNyBjLTAuNCwwLjItMC42LDAuNC0xLDAuNmMtMC42LDAuNC0xLjksMS43LTIuNSwxLjdjLTEuMS0wLjItMS4xLTEuNy0wLjgtMi4zYzAuMi0wLjgsMi4xLTMuNiwzLjQtMy4xYzAuMiwwLjIsMC42LDAuNiwwLjgsMC44IGMwLjQsMC4yLDEuMSwwLjIsMS43LDAuMmMwLjIsMCwwLjQsMCwwLjYtMC4yYzAuMi0wLjIsMC4yLTAuMiwwLjItMC40YzAtMC42LTAuNi0xLjMtMS0xLjdjLTAuNC0wLjQtMS4xLTAuOC0xLjctMS4xIGMtMi4xLTAuNi01LjUsMC4yLTcuMSwxLjdzLTIuOSw0LTMuOCw2LjFjLTAuNCwxLjMtMC44LDIuOS0xLDQuNGMtMC4yLDEtMC40LDEuOSwwLjIsMi45YzAuNiwxLjMsMS45LDIuNSwzLjIsMy40IGMwLjgsMC42LDIuNSwwLjYsMy40LDEuN2MwLjYsMC44LDAuNCwxLjksMC40LDIuOWMwLDEuMywwLjgsMi4zLDEuMywzLjRjMC4yLDAuNiwwLjQsMS41LDAuNiwyLjFjMCwwLjIsMC4yLDEuNSwwLjIsMS43IGMxLjMsMC42LDIuMywxLjMsMy44LDEuN2MwLjIsMCwxLTEuMywxLTEuNWMwLjYtMC42LDEuMS0xLjUsMS43LTEuOWMwLjQtMC4yLDAuOC0wLjQsMS4zLTAuOGMwLjQtMC40LDAuNi0xLjMsMC44LTEuOSBDMjMuOCwzNS4xLDI0LDM0LjMsMjMuOCwzMy43eiBNMjQuMiwxNC4zYzAuMiwwLDAuNC0wLjIsMC44LTAuNGMwLjYtMC40LDEuMy0xLjEsMS45LTEuNWMwLjYtMC40LDEuMy0xLjEsMS43LTEuNSBjMC42LTAuNCwxLjEtMS4zLDEuMy0xLjljMC4yLTAuNCwwLjgtMS4zLDAuNi0xLjljLTAuMi0wLjQtMS4zLTAuNi0xLjctMC44Yy0xLjctMC40LTMuMS0wLjYtNC44LTAuNmMtMC42LDAtMS41LDAuMi0xLjcsMC44IGMtMC4yLDEuMSwwLjYsMC44LDEuNSwxLjFjMCwwLDAuMiwxLjcsMC4yLDEuOWMwLjIsMS0wLjQsMS43LTAuNCwyLjdjMCwwLjYsMCwxLjcsMC40LDIuMUwyNC4yLDE0LjN6IE00MS44LDI5IGMwLjItMC40LDAuMi0xLjEsMC40LTEuNWMwLjItMSwwLjItMi4xLDAuMi0zLjFjMC0yLjEtMC4yLTQuMi0wLjgtNi4xYy0wLjQtMC42LTAuNi0xLjMtMC44LTEuOWMtMC40LTEuMS0xLTIuMS0xLjktMi45IGMtMC44LTEuMS0xLjktNC0zLjgtMy4xYy0wLjYsMC4yLTEsMS0xLjUsMS41Yy0wLjQsMC42LTAuOCwxLjMtMS4zLDEuOWMtMC4yLDAuMi0wLjQsMC42LTAuMiwwLjhjMCwwLjIsMC4yLDAuMiwwLjQsMC4yIGMwLjQsMC4yLDAuNiwwLjIsMSwwLjRjMC4yLDAsMC40LDAuMiwwLjIsMC40YzAsMCwwLDAuMi0wLjIsMC4yYy0xLDEuMS0yLjEsMS45LTMuMSwyLjljLTAuMiwwLjItMC40LDAuNi0wLjQsMC44IGMwLDAuMiwwLjIsMC4yLDAuMiwwLjRjMCwwLjItMC4yLDAuMi0wLjQsMC40Yy0wLjQsMC4yLTAuOCwwLjQtMS4xLDAuNmMtMC4yLDAuNCwwLDEuMS0wLjIsMS41Yy0wLjIsMS4xLTAuOCwxLjktMS4zLDIuOSBjLTAuNCwwLjYtMC42LDEuMy0xLDEuOWMwLDAuOC0wLjIsMS41LDAuMiwyLjFjMSwxLjUsMi45LDAuNiw0LjQsMS4zYzAuNCwwLjIsMC44LDAuMiwxLjEsMC42YzAuNiwwLjYsMC42LDEuNywwLjgsMi4zIGMwLjIsMC44LDAuNCwxLjcsMC44LDIuNWMwLjIsMSwwLjYsMi4xLDAuOCwyLjljMS45LTEuNSwzLjYtMy4xLDQuOC01LjJDNDAuNiwzMi40LDQxLjIsMzAuNyw0MS44LDI5eiIvPiYjeGE7PC9zdmc+;fontSize=16;rounded=1;" vertex="1" parent="bF-3LTAqEb_aoyGkfJVP-12">
          <mxGeometry x="20.139999999999986" width="48" height="48" as="geometry" />
        </mxCell>
        <mxCell id="bF-3LTAqEb_aoyGkfJVP-13" value="" style="group;rounded=1;" vertex="1" connectable="0" parent="rnp1drjSajc5SDvifTcA-1">
          <mxGeometry x="320" y="200" width="100" height="78" as="geometry" />
        </mxCell>
        <mxCell id="bF-3LTAqEb_aoyGkfJVP-14" value="" style="shape=image;verticalLabelPosition=bottom;verticalAlign=top;imageAspect=0;aspect=fixed;image=data:image/svg+xml,PHN2ZyB4bWxucz0iaHR0cDovL3d3dy53My5vcmcvMjAwMC9zdmciIHZlcnNpb249IjEiIHZpZXdCb3g9IjAgMCA0OCA0OCIgZW5hYmxlLWJhY2tncm91bmQ9Im5ldyAwIDAgNDggNDgiPiYjeGE7ICAgIDxwYXRoIGZpbGw9IiNCMEJFQzUiIGQ9Ik0zNyw0Mkg1VjMyaDMyYzIuOCwwLDUsMi4yLDUsNXYwQzQyLDM5LjgsMzkuOCw0MiwzNyw0MnoiLz4mI3hhOyAgICA8cGF0aCBmaWxsPSIjMzc0NzRGIiBkPSJNMTAsMzRjLTEuNywwLTMsMS4zLTMsM3MxLjMsMywzLDNzMy0xLjMsMy0zUzExLjcsMzQsMTAsMzR6IE0xMCwzOGMtMC42LDAtMS0wLjQtMS0xYzAtMC42LDAuNC0xLDEtMSBzMSwwLjQsMSwxQzExLDM3LjYsMTAuNiwzOCwxMCwzOHoiLz4mI3hhOyAgICA8cGF0aCBmaWxsPSIjMzc0NzRGIiBkPSJNMTksMzRjLTEuNywwLTMsMS4zLTMsM3MxLjMsMywzLDNzMy0xLjMsMy0zUzIwLjcsMzQsMTksMzR6IE0xOSwzOGMtMC42LDAtMS0wLjQtMS0xYzAtMC42LDAuNC0xLDEtMSBzMSwwLjQsMSwxQzIwLDM3LjYsMTkuNiwzOCwxOSwzOHoiLz4mI3hhOyAgICA8cGF0aCBmaWxsPSIjMzc0NzRGIiBkPSJNMzcsMzRjLTEuNywwLTMsMS4zLTMsM3MxLjMsMywzLDNzMy0xLjMsMy0zUzM4LjcsMzQsMzcsMzR6IE0zNywzOGMtMC42LDAtMS0wLjQtMS0xYzAtMC42LDAuNC0xLDEtMSBzMSwwLjQsMSwxQzM4LDM3LjYsMzcuNiwzOCwzNywzOHoiLz4mI3hhOyAgICA8cGF0aCBmaWxsPSIjMzc0NzRGIiBkPSJNMjgsMzRjLTEuNywwLTMsMS4zLTMsM3MxLjMsMywzLDNzMy0xLjMsMy0zUzI5LjcsMzQsMjgsMzR6IE0yOCwzOGMtMC42LDAtMS0wLjQtMS0xYzAtMC42LDAuNC0xLDEtMSBzMSwwLjQsMSwxQzI5LDM3LjYsMjguNiwzOCwyOCwzOHoiLz4mI3hhOyAgICA8cGF0aCBmaWxsPSIjRkY5ODAwIiBkPSJNMzUsMzFIMTFjLTEuMSwwLTItMC45LTItMlY3YzAtMS4xLDAuOS0yLDItMmgyNGMxLjEsMCwyLDAuOSwyLDJ2MjJDMzcsMzAuMSwzNi4xLDMxLDM1LDMxeiIvPiYjeGE7ICAgIDxwYXRoIGZpbGw9IiM4QTUxMDAiIGQ9Ik0yNi41LDEzaC03Yy0wLjgsMC0xLjUtMC43LTEuNS0xLjV2MGMwLTAuOCwwLjctMS41LDEuNS0xLjVoN2MwLjgsMCwxLjUsMC43LDEuNSwxLjV2MCBDMjgsMTIuMywyNy4zLDEzLDI2LjUsMTN6Ii8+JiN4YTsgICAgPHBhdGggZmlsbD0iIzYwN0Q4QiIgZD0iTTM3LDMxSDV2MmgzMmMyLjIsMCw0LDEuOCw0LDRzLTEuOCw0LTQsNEg1djJoMzJjMy4zLDAsNi0yLjcsNi02UzQwLjMsMzEsMzcsMzF6Ii8+JiN4YTs8L3N2Zz4=;fontSize=16;rounded=1;" vertex="1" parent="bF-3LTAqEb_aoyGkfJVP-13">
          <mxGeometry x="20.139999999999986" width="48" height="48" as="geometry" />
        </mxCell>
        <mxCell id="bF-3LTAqEb_aoyGkfJVP-15" value="DNS Server" style="text;strokeColor=none;align=center;fillColor=none;html=1;verticalAlign=middle;whiteSpace=wrap;rounded=1;fontSize=16;" vertex="1" parent="bF-3LTAqEb_aoyGkfJVP-13">
          <mxGeometry y="48" width="100" height="30" as="geometry" />
        </mxCell>
        <mxCell id="bF-3LTAqEb_aoyGkfJVP-17" style="edgeStyle=none;curved=1;rounded=1;orthogonalLoop=1;jettySize=auto;html=1;fontSize=12;startSize=8;endSize=8;" edge="1" parent="rnp1drjSajc5SDvifTcA-1" source="bF-3LTAqEb_aoyGkfJVP-5">
          <mxGeometry relative="1" as="geometry">
            <mxPoint x="360" y="190" as="targetPoint" />
          </mxGeometry>
        </mxCell>
        <mxCell id="bF-3LTAqEb_aoyGkfJVP-54" style="edgeStyle=none;curved=1;rounded=1;orthogonalLoop=1;jettySize=auto;html=1;fontSize=12;startSize=8;endSize=8;" edge="1" parent="rnp1drjSajc5SDvifTcA-1" source="bF-3LTAqEb_aoyGkfJVP-21">
          <mxGeometry relative="1" as="geometry">
            <mxPoint x="919.9999999999995" y="200" as="targetPoint" />
          </mxGeometry>
        </mxCell>
        <mxCell id="bF-3LTAqEb_aoyGkfJVP-21" value="Web Brower" style="text;strokeColor=none;align=center;fillColor=none;html=1;verticalAlign=middle;whiteSpace=wrap;rounded=1;fontSize=16;" vertex="1" parent="rnp1drjSajc5SDvifTcA-1">
          <mxGeometry x="654.2828571428571" y="120" width="103.71428571428572" height="36.214285714285715" as="geometry" />
        </mxCell>
        <mxCell id="bF-3LTAqEb_aoyGkfJVP-25" value="" style="shape=image;verticalLabelPosition=bottom;verticalAlign=top;imageAspect=0;aspect=fixed;image=data:image/svg+xml,PHN2ZyB4bWxucz0iaHR0cDovL3d3dy53My5vcmcvMjAwMC9zdmciIHZlcnNpb249IjEiIHZpZXdCb3g9IjAgMCA0OCA0OCIgZW5hYmxlLWJhY2tncm91bmQ9Im5ldyAwIDAgNDggNDgiPiYjeGE7ICAgIDxwYXRoIGZpbGw9IiM3Q0IzNDIiIGQ9Ik0yNCw0QzEzLDQsNCwxMyw0LDI0czksMjAsMjAsMjBzMjAtOSwyMC0yMFMzNSw0LDI0LDR6Ii8+JiN4YTsgICAgPHBhdGggZmlsbD0iIzAyNzdCRCIgZD0iTTQ1LDI0YzAsMTEuNy05LjUsMjEtMjEsMjFTMywzNS43LDMsMjRTMTIuMywzLDI0LDNTNDUsMTIuMyw0NSwyNHogTTIzLjgsMzMuN2MwLTAuNC0wLjItMC42LTAuNi0wLjggYy0xLjMtMC40LTIuNS0wLjQtMy42LTEuNWMtMC4yLTAuNC0wLjItMC44LTAuNC0xLjNjLTAuNC0wLjQtMS41LTAuNi0yLjEtMC44Yy0wLjgsMC0xLjcsMC0yLjcsMGMtMC40LDAtMS4xLDAtMS41LDAgYy0wLjYtMC4yLTEuMS0xLjEtMS41LTEuN2MwLTAuMiwwLTAuNi0wLjQtMC42Yy0wLjQtMC4yLTAuOCwwLjItMS4zLDBjLTAuMi0wLjItMC4yLTAuNC0wLjItMC42YzAtMC42LDAuNC0xLjMsMC44LTEuNyBjMC42LTAuNCwxLjMsMC4yLDEuOSwwLjJjMC4yLDAsMC4yLDAsMC40LDAuMmMwLjYsMC4yLDAuOCwxLDAuOCwxLjdjMCwwLjIsMCwwLjQsMCwwLjRjMCwwLjIsMC4yLDAuMiwwLjQsMC4yIGMwLjItMS4xLDAuMi0yLjEsMC40LTMuMmMwLTEuMywxLjMtMi41LDIuMy0yLjljMC40LTAuMiwwLjYsMC4yLDEuMSwwYzEuMy0wLjQsNC40LTEuNywzLjgtMy40Yy0wLjQtMS41LTEuNy0yLjktMy40LTIuNyBjLTAuNCwwLjItMC42LDAuNC0xLDAuNmMtMC42LDAuNC0xLjksMS43LTIuNSwxLjdjLTEuMS0wLjItMS4xLTEuNy0wLjgtMi4zYzAuMi0wLjgsMi4xLTMuNiwzLjQtMy4xYzAuMiwwLjIsMC42LDAuNiwwLjgsMC44IGMwLjQsMC4yLDEuMSwwLjIsMS43LDAuMmMwLjIsMCwwLjQsMCwwLjYtMC4yYzAuMi0wLjIsMC4yLTAuMiwwLjItMC40YzAtMC42LTAuNi0xLjMtMS0xLjdjLTAuNC0wLjQtMS4xLTAuOC0xLjctMS4xIGMtMi4xLTAuNi01LjUsMC4yLTcuMSwxLjdzLTIuOSw0LTMuOCw2LjFjLTAuNCwxLjMtMC44LDIuOS0xLDQuNGMtMC4yLDEtMC40LDEuOSwwLjIsMi45YzAuNiwxLjMsMS45LDIuNSwzLjIsMy40IGMwLjgsMC42LDIuNSwwLjYsMy40LDEuN2MwLjYsMC44LDAuNCwxLjksMC40LDIuOWMwLDEuMywwLjgsMi4zLDEuMywzLjRjMC4yLDAuNiwwLjQsMS41LDAuNiwyLjFjMCwwLjIsMC4yLDEuNSwwLjIsMS43IGMxLjMsMC42LDIuMywxLjMsMy44LDEuN2MwLjIsMCwxLTEuMywxLTEuNWMwLjYtMC42LDEuMS0xLjUsMS43LTEuOWMwLjQtMC4yLDAuOC0wLjQsMS4zLTAuOGMwLjQtMC40LDAuNi0xLjMsMC44LTEuOSBDMjMuOCwzNS4xLDI0LDM0LjMsMjMuOCwzMy43eiBNMjQuMiwxNC4zYzAuMiwwLDAuNC0wLjIsMC44LTAuNGMwLjYtMC40LDEuMy0xLjEsMS45LTEuNWMwLjYtMC40LDEuMy0xLjEsMS43LTEuNSBjMC42LTAuNCwxLjEtMS4zLDEuMy0xLjljMC4yLTAuNCwwLjgtMS4zLDAuNi0xLjljLTAuMi0wLjQtMS4zLTAuNi0xLjctMC44Yy0xLjctMC40LTMuMS0wLjYtNC44LTAuNmMtMC42LDAtMS41LDAuMi0xLjcsMC44IGMtMC4yLDEuMSwwLjYsMC44LDEuNSwxLjFjMCwwLDAuMiwxLjcsMC4yLDEuOWMwLjIsMS0wLjQsMS43LTAuNCwyLjdjMCwwLjYsMCwxLjcsMC40LDIuMUwyNC4yLDE0LjN6IE00MS44LDI5IGMwLjItMC40LDAuMi0xLjEsMC40LTEuNWMwLjItMSwwLjItMi4xLDAuMi0zLjFjMC0yLjEtMC4yLTQuMi0wLjgtNi4xYy0wLjQtMC42LTAuNi0xLjMtMC44LTEuOWMtMC40LTEuMS0xLTIuMS0xLjktMi45IGMtMC44LTEuMS0xLjktNC0zLjgtMy4xYy0wLjYsMC4yLTEsMS0xLjUsMS41Yy0wLjQsMC42LTAuOCwxLjMtMS4zLDEuOWMtMC4yLDAuMi0wLjQsMC42LTAuMiwwLjhjMCwwLjIsMC4yLDAuMiwwLjQsMC4yIGMwLjQsMC4yLDAuNiwwLjIsMSwwLjRjMC4yLDAsMC40LDAuMiwwLjIsMC40YzAsMCwwLDAuMi0wLjIsMC4yYy0xLDEuMS0yLjEsMS45LTMuMSwyLjljLTAuMiwwLjItMC40LDAuNi0wLjQsMC44IGMwLDAuMiwwLjIsMC4yLDAuMiwwLjRjMCwwLjItMC4yLDAuMi0wLjQsMC40Yy0wLjQsMC4yLTAuOCwwLjQtMS4xLDAuNmMtMC4yLDAuNCwwLDEuMS0wLjIsMS41Yy0wLjIsMS4xLTAuOCwxLjktMS4zLDIuOSBjLTAuNCwwLjYtMC42LDEuMy0xLDEuOWMwLDAuOC0wLjIsMS41LDAuMiwyLjFjMSwxLjUsMi45LDAuNiw0LjQsMS4zYzAuNCwwLjIsMC44LDAuMiwxLjEsMC42YzAuNiwwLjYsMC42LDEuNywwLjgsMi4zIGMwLjIsMC44LDAuNCwxLjcsMC44LDIuNWMwLjIsMSwwLjYsMi4xLDAuOCwyLjljMS45LTEuNSwzLjYtMy4xLDQuOC01LjJDNDAuNiwzMi40LDQxLjIsMzAuNyw0MS44LDI5eiIvPiYjeGE7PC9zdmc+;fontSize=16;rounded=1;" vertex="1" parent="rnp1drjSajc5SDvifTcA-1">
          <mxGeometry x="682.14" y="72" width="48" height="48" as="geometry" />
        </mxCell>
        <mxCell id="bF-3LTAqEb_aoyGkfJVP-27" value="Web Server (nginx)&lt;br&gt;" style="text;strokeColor=none;align=center;fillColor=none;html=1;verticalAlign=middle;whiteSpace=wrap;rounded=1;fontSize=16;" vertex="1" parent="rnp1drjSajc5SDvifTcA-1">
          <mxGeometry x="670" y="502" width="100" height="30" as="geometry" />
        </mxCell>
        <mxCell id="bF-3LTAqEb_aoyGkfJVP-34" value="" style="group;rounded=1;" vertex="1" connectable="0" parent="rnp1drjSajc5SDvifTcA-1">
          <mxGeometry x="302.28" y="378" width="147.72000000000003" height="164" as="geometry" />
        </mxCell>
        <mxCell id="bF-3LTAqEb_aoyGkfJVP-31" value="Application Server&amp;nbsp;" style="text;strokeColor=none;align=center;fillColor=none;html=1;verticalAlign=middle;whiteSpace=wrap;rounded=1;fontSize=16;" vertex="1" parent="bF-3LTAqEb_aoyGkfJVP-34">
          <mxGeometry x="3.8600000000000274" y="124" width="140" height="30" as="geometry" />
        </mxCell>
        <mxCell id="bF-3LTAqEb_aoyGkfJVP-35" value="" style="group;rounded=1;" vertex="1" connectable="0" parent="rnp1drjSajc5SDvifTcA-1">
          <mxGeometry x="296.14" y="406" width="147.72000000000003" height="164" as="geometry" />
        </mxCell>
        <mxCell id="bF-3LTAqEb_aoyGkfJVP-33" value="" style="shape=image;verticalLabelPosition=bottom;verticalAlign=top;imageAspect=0;aspect=fixed;image=data:image/svg+xml,PHN2ZyB4bWxucz0iaHR0cDovL3d3dy53My5vcmcvMjAwMC9zdmciIHZlcnNpb249IjEiIHZpZXdCb3g9IjAgMCA0OCA0OCIgZW5hYmxlLWJhY2tncm91bmQ9Im5ldyAwIDAgNDggNDgiPiYjeGE7ICAgIDxyZWN0IHg9IjEyIiB5PSI0NCIgZmlsbD0iIzI2MzIzOCIgd2lkdGg9IjQiIGhlaWdodD0iMiIvPiYjeGE7ICAgIDxyZWN0IHg9IjMyIiB5PSI0NCIgZmlsbD0iIzI2MzIzOCIgd2lkdGg9IjQiIGhlaWdodD0iMiIvPiYjeGE7ICAgIDxwYXRoIGZpbGw9IiM2MDdEOEIiIGQ9Ik04LDQxVjdjMC0yLjIsMS44LTQsNC00aDI0YzIuMiwwLDQsMS44LDQsNHYzNGMwLDIuMi0xLjgsNC00LDRIMTJDOS44LDQ1LDgsNDMuMiw4LDQxeiIvPiYjeGE7ICAgIDxwYXRoIGZpbGw9IiNCMEJFQzUiIGQ9Ik0xMiwxN1Y4YzAtMC42LDAuNC0xLDEtMWgyMmMwLjYsMCwxLDAuNCwxLDF2OUgxMnoiLz4mI3hhOyAgICA8cmVjdCB4PSIxMiIgeT0iMTkiIGZpbGw9IiNCMEJFQzUiIHdpZHRoPSIyNCIgaGVpZ2h0PSIxMCIvPiYjeGE7ICAgIDxwYXRoIGZpbGw9IiNCMEJFQzUiIGQ9Ik0xMiw0MHYtOWgyNHY5YzAsMC42LTAuNCwxLTEsMUgxM0MxMi40LDQxLDEyLDQwLjYsMTIsNDB6Ii8+JiN4YTsgICAgPHJlY3QgeD0iMjAiIHk9IjExIiBmaWxsPSIjNTQ2RTdBIiB3aWR0aD0iOCIgaGVpZ2h0PSIyIi8+JiN4YTsgICAgPHJlY3QgeD0iMjAiIHk9IjIzIiBmaWxsPSIjNTQ2RTdBIiB3aWR0aD0iOCIgaGVpZ2h0PSIyIi8+JiN4YTsgICAgPHJlY3QgeD0iMjAiIHk9IjM1IiBmaWxsPSIjNTQ2RTdBIiB3aWR0aD0iOCIgaGVpZ2h0PSIyIi8+JiN4YTs8L3N2Zz4=;fontSize=16;rounded=1;" vertex="1" parent="bF-3LTAqEb_aoyGkfJVP-35">
          <mxGeometry x="6.14" y="-28" width="124" height="124" as="geometry" />
        </mxCell>
        <mxCell id="bF-3LTAqEb_aoyGkfJVP-57" style="edgeStyle=none;curved=1;rounded=1;orthogonalLoop=1;jettySize=auto;html=1;fontSize=12;startSize=8;endSize=8;" edge="1" parent="rnp1drjSajc5SDvifTcA-1" source="bF-3LTAqEb_aoyGkfJVP-37" target="bF-3LTAqEb_aoyGkfJVP-33">
          <mxGeometry relative="1" as="geometry" />
        </mxCell>
        <mxCell id="bF-3LTAqEb_aoyGkfJVP-37" value="" style="shape=image;verticalLabelPosition=bottom;verticalAlign=top;imageAspect=0;aspect=fixed;image=data:image/svg+xml,PHN2ZyB4bWxucz0iaHR0cDovL3d3dy53My5vcmcvMjAwMC9zdmciIHZlcnNpb249IjEiIHZpZXdCb3g9IjAgMCA0OCA0OCIgZW5hYmxlLWJhY2tncm91bmQ9Im5ldyAwIDAgNDggNDgiPiYjeGE7ICAgIDxyZWN0IHg9IjEyIiB5PSI0NCIgZmlsbD0iIzI2MzIzOCIgd2lkdGg9IjQiIGhlaWdodD0iMiIvPiYjeGE7ICAgIDxyZWN0IHg9IjMyIiB5PSI0NCIgZmlsbD0iIzI2MzIzOCIgd2lkdGg9IjQiIGhlaWdodD0iMiIvPiYjeGE7ICAgIDxwYXRoIGZpbGw9IiM2MDdEOEIiIGQ9Ik04LDQxVjdjMC0yLjIsMS44LTQsNC00aDI0YzIuMiwwLDQsMS44LDQsNHYzNGMwLDIuMi0xLjgsNC00LDRIMTJDOS44LDQ1LDgsNDMuMiw4LDQxeiIvPiYjeGE7ICAgIDxwYXRoIGZpbGw9IiNCMEJFQzUiIGQ9Ik0xMiwxN1Y4YzAtMC42LDAuNC0xLDEtMWgyMmMwLjYsMCwxLDAuNCwxLDF2OUgxMnoiLz4mI3hhOyAgICA8cmVjdCB4PSIxMiIgeT0iMTkiIGZpbGw9IiNCMEJFQzUiIHdpZHRoPSIyNCIgaGVpZ2h0PSIxMCIvPiYjeGE7ICAgIDxwYXRoIGZpbGw9IiNCMEJFQzUiIGQ9Ik0xMiw0MHYtOWgyNHY5YzAsMC42LTAuNCwxLTEsMUgxM0MxMi40LDQxLDEyLDQwLjYsMTIsNDB6Ii8+JiN4YTsgICAgPHJlY3QgeD0iMjAiIHk9IjExIiBmaWxsPSIjNTQ2RTdBIiB3aWR0aD0iOCIgaGVpZ2h0PSIyIi8+JiN4YTsgICAgPHJlY3QgeD0iMjAiIHk9IjIzIiBmaWxsPSIjNTQ2RTdBIiB3aWR0aD0iOCIgaGVpZ2h0PSIyIi8+JiN4YTsgICAgPHJlY3QgeD0iMjAiIHk9IjM1IiBmaWxsPSIjNTQ2RTdBIiB3aWR0aD0iOCIgaGVpZ2h0PSIyIi8+JiN4YTs8L3N2Zz4=;fontSize=16;rounded=1;" vertex="1" parent="rnp1drjSajc5SDvifTcA-1">
          <mxGeometry x="653.78" y="378" width="124" height="124" as="geometry" />
        </mxCell>
        <mxCell id="bF-3LTAqEb_aoyGkfJVP-40" value="" style="group;rounded=1;" vertex="1" connectable="0" parent="rnp1drjSajc5SDvifTcA-1">
          <mxGeometry x="670" y="230" width="110" height="100" as="geometry" />
        </mxCell>
        <mxCell id="bF-3LTAqEb_aoyGkfJVP-41" value="www.footer.com" style="text;strokeColor=none;align=center;fillColor=none;html=1;verticalAlign=middle;whiteSpace=wrap;rounded=1;fontSize=16;" vertex="1" parent="bF-3LTAqEb_aoyGkfJVP-40">
          <mxGeometry x="-9.216000000000001" y="47.25846153846154" width="109.99999999999999" height="38.46153846153846" as="geometry" />
        </mxCell>
        <mxCell id="bF-3LTAqEb_aoyGkfJVP-42" value="" style="shape=image;verticalLabelPosition=bottom;verticalAlign=top;imageAspect=0;aspect=fixed;image=data:image/svg+xml,PHN2ZyB4bWxucz0iaHR0cDovL3d3dy53My5vcmcvMjAwMC9zdmciIHZlcnNpb249IjEiIHZpZXdCb3g9IjAgMCA0OCA0OCIgZW5hYmxlLWJhY2tncm91bmQ9Im5ldyAwIDAgNDggNDgiPiYjeGE7ICAgIDxwYXRoIGZpbGw9IiM3Q0IzNDIiIGQ9Ik0yNCw0QzEzLDQsNCwxMyw0LDI0czksMjAsMjAsMjBzMjAtOSwyMC0yMFMzNSw0LDI0LDR6Ii8+JiN4YTsgICAgPHBhdGggZmlsbD0iIzAyNzdCRCIgZD0iTTQ1LDI0YzAsMTEuNy05LjUsMjEtMjEsMjFTMywzNS43LDMsMjRTMTIuMywzLDI0LDNTNDUsMTIuMyw0NSwyNHogTTIzLjgsMzMuN2MwLTAuNC0wLjItMC42LTAuNi0wLjggYy0xLjMtMC40LTIuNS0wLjQtMy42LTEuNWMtMC4yLTAuNC0wLjItMC44LTAuNC0xLjNjLTAuNC0wLjQtMS41LTAuNi0yLjEtMC44Yy0wLjgsMC0xLjcsMC0yLjcsMGMtMC40LDAtMS4xLDAtMS41LDAgYy0wLjYtMC4yLTEuMS0xLjEtMS41LTEuN2MwLTAuMiwwLTAuNi0wLjQtMC42Yy0wLjQtMC4yLTAuOCwwLjItMS4zLDBjLTAuMi0wLjItMC4yLTAuNC0wLjItMC42YzAtMC42LDAuNC0xLjMsMC44LTEuNyBjMC42LTAuNCwxLjMsMC4yLDEuOSwwLjJjMC4yLDAsMC4yLDAsMC40LDAuMmMwLjYsMC4yLDAuOCwxLDAuOCwxLjdjMCwwLjIsMCwwLjQsMCwwLjRjMCwwLjIsMC4yLDAuMiwwLjQsMC4yIGMwLjItMS4xLDAuMi0yLjEsMC40LTMuMmMwLTEuMywxLjMtMi41LDIuMy0yLjljMC40LTAuMiwwLjYsMC4yLDEuMSwwYzEuMy0wLjQsNC40LTEuNywzLjgtMy40Yy0wLjQtMS41LTEuNy0yLjktMy40LTIuNyBjLTAuNCwwLjItMC42LDAuNC0xLDAuNmMtMC42LDAuNC0xLjksMS43LTIuNSwxLjdjLTEuMS0wLjItMS4xLTEuNy0wLjgtMi4zYzAuMi0wLjgsMi4xLTMuNiwzLjQtMy4xYzAuMiwwLjIsMC42LDAuNiwwLjgsMC44IGMwLjQsMC4yLDEuMSwwLjIsMS43LDAuMmMwLjIsMCwwLjQsMCwwLjYtMC4yYzAuMi0wLjIsMC4yLTAuMiwwLjItMC40YzAtMC42LTAuNi0xLjMtMS0xLjdjLTAuNC0wLjQtMS4xLTAuOC0xLjctMS4xIGMtMi4xLTAuNi01LjUsMC4yLTcuMSwxLjdzLTIuOSw0LTMuOCw2LjFjLTAuNCwxLjMtMC44LDIuOS0xLDQuNGMtMC4yLDEtMC40LDEuOSwwLjIsMi45YzAuNiwxLjMsMS45LDIuNSwzLjIsMy40IGMwLjgsMC42LDIuNSwwLjYsMy40LDEuN2MwLjYsMC44LDAuNCwxLjksMC40LDIuOWMwLDEuMywwLjgsMi4zLDEuMywzLjRjMC4yLDAuNiwwLjQsMS41LDAuNiwyLjFjMCwwLjIsMC4yLDEuNSwwLjIsMS43IGMxLjMsMC42LDIuMywxLjMsMy44LDEuN2MwLjIsMCwxLTEuMywxLTEuNWMwLjYtMC42LDEuMS0xLjUsMS43LTEuOWMwLjQtMC4yLDAuOC0wLjQsMS4zLTAuOGMwLjQtMC40LDAuNi0xLjMsMC44LTEuOSBDMjMuOCwzNS4xLDI0LDM0LjMsMjMuOCwzMy43eiBNMjQuMiwxNC4zYzAuMiwwLDAuNC0wLjIsMC44LTAuNGMwLjYtMC40LDEuMy0xLjEsMS45LTEuNWMwLjYtMC40LDEuMy0xLjEsMS43LTEuNSBjMC42LTAuNCwxLjEtMS4zLDEuMy0xLjljMC4yLTAuNCwwLjgtMS4zLDAuNi0xLjljLTAuMi0wLjQtMS4zLTAuNi0xLjctMC44Yy0xLjctMC40LTMuMS0wLjYtNC44LTAuNmMtMC42LDAtMS41LDAuMi0xLjcsMC44IGMtMC4yLDEuMSwwLjYsMC44LDEuNSwxLjFjMCwwLDAuMiwxLjcsMC4yLDEuOWMwLjIsMS0wLjQsMS43LTAuNCwyLjdjMCwwLjYsMCwxLjcsMC40LDIuMUwyNC4yLDE0LjN6IE00MS44LDI5IGMwLjItMC40LDAuMi0xLjEsMC40LTEuNWMwLjItMSwwLjItMi4xLDAuMi0zLjFjMC0yLjEtMC4yLTQuMi0wLjgtNi4xYy0wLjQtMC42LTAuNi0xLjMtMC44LTEuOWMtMC40LTEuMS0xLTIuMS0xLjktMi45IGMtMC44LTEuMS0xLjktNC0zLjgtMy4xYy0wLjYsMC4yLTEsMS0xLjUsMS41Yy0wLjQsMC42LTAuOCwxLjMtMS4zLDEuOWMtMC4yLDAuMi0wLjQsMC42LTAuMiwwLjhjMCwwLjIsMC4yLDAuMiwwLjQsMC4yIGMwLjQsMC4yLDAuNiwwLjIsMSwwLjRjMC4yLDAsMC40LDAuMiwwLjIsMC40YzAsMCwwLDAuMi0wLjIsMC4yYy0xLDEuMS0yLjEsMS45LTMuMSwyLjljLTAuMiwwLjItMC40LDAuNi0wLjQsMC44IGMwLDAuMiwwLjIsMC4yLDAuMiwwLjRjMCwwLjItMC4yLDAuMi0wLjQsMC40Yy0wLjQsMC4yLTAuOCwwLjQtMS4xLDAuNmMtMC4yLDAuNCwwLDEuMS0wLjIsMS41Yy0wLjIsMS4xLTAuOCwxLjktMS4zLDIuOSBjLTAuNCwwLjYtMC42LDEuMy0xLDEuOWMwLDAuOC0wLjIsMS41LDAuMiwyLjFjMSwxLjUsMi45LDAuNiw0LjQsMS4zYzAuNCwwLjIsMC44LDAuMiwxLjEsMC42YzAuNiwwLjYsMC42LDEuNywwLjgsMi4zIGMwLjIsMC44LDAuNCwxLjcsMC44LDIuNWMwLjIsMSwwLjYsMi4xLDAuOCwyLjljMS45LTEuNSwzLjYtMy4xLDQuOC01LjJDNDAuNiwzMi40LDQxLjIsMzAuNyw0MS44LDI5eiIvPiYjeGE7PC9zdmc+;fontSize=16;rounded=1;" vertex="1" parent="bF-3LTAqEb_aoyGkfJVP-40">
          <mxGeometry x="22.153999999999982" width="47.26153846153846" height="47.26153846153846" as="geometry" />
        </mxCell>
        <mxCell id="bF-3LTAqEb_aoyGkfJVP-48" value="" style="shape=image;verticalLabelPosition=bottom;verticalAlign=top;imageAspect=0;aspect=fixed;image=data:image/svg+xml,PHN2ZyB4bWxucz0iaHR0cDovL3d3dy53My5vcmcvMjAwMC9zdmciIHZlcnNpb249IjEiIHZpZXdCb3g9IjAgMCA0OCA0OCIgZW5hYmxlLWJhY2tncm91bmQ9Im5ldyAwIDAgNDggNDgiPiYjeGE7ICAgIDxnIGZpbGw9IiNEMUM0RTkiPiYjeGE7ICAgICAgICA8cGF0aCBkPSJNMzgsN0gxMEM4LjksNyw4LDcuOSw4LDl2NmMwLDEuMSwwLjksMiwyLDJoMjhjMS4xLDAsMi0wLjksMi0yVjlDNDAsNy45LDM5LjEsNywzOCw3eiIvPiYjeGE7ICAgICAgICA8cGF0aCBkPSJNMzgsMTlIMTBjLTEuMSwwLTIsMC45LTIsMnY2YzAsMS4xLDAuOSwyLDIsMmgyOGMxLjEsMCwyLTAuOSwyLTJ2LTZDNDAsMTkuOSwzOS4xLDE5LDM4LDE5eiIvPiYjeGE7ICAgICAgICA8cGF0aCBkPSJNMzgsMzFIMTBjLTEuMSwwLTIsMC45LTIsMnY2YzAsMS4xLDAuOSwyLDIsMmgyOGMxLjEsMCwyLTAuOSwyLTJ2LTZDNDAsMzEuOSwzOS4xLDMxLDM4LDMxeiIvPiYjeGE7ICAgIDwvZz4mI3hhOyAgICA8Y2lyY2xlIGZpbGw9IiM0M0EwNDciIGN4PSIzOCIgY3k9IjM4IiByPSIxMCIvPiYjeGE7ICAgIDxwb2x5Z29uIGZpbGw9IiNEQ0VEQzgiIHBvaW50cz0iNDIuNSwzMy4zIDM2LjgsMzkgMzQuMSwzNi4zIDMyLDM4LjUgMzYuOCw0My4zIDQ0LjYsMzUuNSIvPiYjeGE7PC9zdmc+;fontSize=16;rounded=1;" vertex="1" parent="rnp1drjSajc5SDvifTcA-1">
          <mxGeometry x="312.14" y="590" width="128" height="128" as="geometry" />
        </mxCell>
        <mxCell id="bF-3LTAqEb_aoyGkfJVP-49" value="Database (MySQL)" style="text;strokeColor=none;align=center;fillColor=none;html=1;verticalAlign=middle;whiteSpace=wrap;rounded=1;fontSize=16;" vertex="1" parent="rnp1drjSajc5SDvifTcA-1">
          <mxGeometry x="320" y="718" width="140" height="30" as="geometry" />
        </mxCell>
        <mxCell id="bF-3LTAqEb_aoyGkfJVP-52" style="edgeStyle=none;curved=1;rounded=1;orthogonalLoop=1;jettySize=auto;html=1;fontSize=12;startSize=8;endSize=8;" edge="1" parent="rnp1drjSajc5SDvifTcA-1" source="bF-3LTAqEb_aoyGkfJVP-31" target="bF-3LTAqEb_aoyGkfJVP-48">
          <mxGeometry relative="1" as="geometry" />
        </mxCell>
        <mxCell id="bF-3LTAqEb_aoyGkfJVP-53" style="edgeStyle=none;curved=1;rounded=1;orthogonalLoop=1;jettySize=auto;html=1;entryX=0;entryY=0.75;entryDx=0;entryDy=0;fontSize=12;startSize=8;endSize=8;" edge="1" parent="rnp1drjSajc5SDvifTcA-1" source="bF-3LTAqEb_aoyGkfJVP-14" target="bF-3LTAqEb_aoyGkfJVP-21">
          <mxGeometry relative="1" as="geometry" />
        </mxCell>
        <mxCell id="bF-3LTAqEb_aoyGkfJVP-56" style="edgeStyle=none;curved=1;rounded=1;orthogonalLoop=1;jettySize=auto;html=1;entryX=0.5;entryY=0;entryDx=0;entryDy=0;fontSize=12;startSize=8;endSize=8;" edge="1" parent="rnp1drjSajc5SDvifTcA-1" source="bF-3LTAqEb_aoyGkfJVP-41" target="bF-3LTAqEb_aoyGkfJVP-37">
          <mxGeometry relative="1" as="geometry" />
        </mxCell>
        <mxCell id="bF-3LTAqEb_aoyGkfJVP-58" value="&lt;b&gt;By Alban Okoby, ALX Software Engineering&lt;/b&gt;" style="text=white;align=center;html=1;verticalAlign=middle;whiteSpace=wrap;rounded=1;fontSize=16;fillColor=#d80073;strokeColor=#A50040;fontColor=#ffffff;" vertex="1" parent="rnp1drjSajc5SDvifTcA-1">
          <mxGeometry x="1000" y="-10" width="130" height="90" as="geometry" />
        </mxCell>
        <mxCell id="bF-3LTAqEb_aoyGkfJVP-61" value="Simple Web infrastructure Stack design" style="text;strokeColor=none;align=center;fillColor=lightgray;html=1;verticalAlign=middle;whiteSpace=wrap;rounded=1;fontSize=22;" vertex="1" parent="rnp1drjSajc5SDvifTcA-1">
          <mxGeometry x="550" y="-40" width="280" height="80" as="geometry" />
        </mxCell>
      </root>
    </mxGraphModel>
  </diagram>
  <diagram name="1-distributed_web_infrastructure" id="YgQA0E7Tto5fLiBlxd3E">
    <mxGraphModel dx="2146" dy="1863" grid="1" gridSize="10" guides="1" tooltips="1" connect="1" arrows="1" fold="1" page="1" pageScale="1" pageWidth="1169" pageHeight="827" math="0" shadow="0">
      <root>
        <mxCell id="xqDdNOHH6OhE9BaDV7xd-0" />
        <mxCell id="xqDdNOHH6OhE9BaDV7xd-1" parent="xqDdNOHH6OhE9BaDV7xd-0" />
        <mxCell id="cJ2oHsDJEfoyKOnKyrQ6-31" style="edgeStyle=orthogonalEdgeStyle;rounded=1;orthogonalLoop=1;jettySize=auto;html=1;" edge="1" parent="xqDdNOHH6OhE9BaDV7xd-1" source="cJ2oHsDJEfoyKOnKyrQ6-25" target="xqDdNOHH6OhE9BaDV7xd-26">
          <mxGeometry relative="1" as="geometry" />
        </mxCell>
        <mxCell id="cJ2oHsDJEfoyKOnKyrQ6-25" value="" style="whiteSpace=wrap;html=1;rounded=1;fillColor=#fff2cc;gradientColor=#ffd966;strokeColor=#d6b656;" vertex="1" parent="xqDdNOHH6OhE9BaDV7xd-1">
          <mxGeometry x="365.21" y="140" width="284.79" height="450" as="geometry" />
        </mxCell>
        <mxCell id="cJ2oHsDJEfoyKOnKyrQ6-29" value="" style="edgeStyle=orthogonalEdgeStyle;rounded=1;orthogonalLoop=1;jettySize=auto;html=1;" edge="1" parent="xqDdNOHH6OhE9BaDV7xd-1" source="cJ2oHsDJEfoyKOnKyrQ6-24" target="cJ2oHsDJEfoyKOnKyrQ6-21">
          <mxGeometry relative="1" as="geometry" />
        </mxCell>
        <mxCell id="cJ2oHsDJEfoyKOnKyrQ6-24" value="" style="whiteSpace=wrap;html=1;rounded=1;fillColor=#fff2cc;gradientColor=#ffd966;strokeColor=#d6b656;" vertex="1" parent="xqDdNOHH6OhE9BaDV7xd-1">
          <mxGeometry x="800" y="129" width="280" height="460" as="geometry" />
        </mxCell>
        <mxCell id="xqDdNOHH6OhE9BaDV7xd-13" style="edgeStyle=none;curved=1;rounded=1;orthogonalLoop=1;jettySize=auto;html=1;fontSize=12;startSize=8;endSize=8;entryX=0.5;entryY=1;entryDx=0;entryDy=0;" edge="1" parent="xqDdNOHH6OhE9BaDV7xd-1" target="xqDdNOHH6OhE9BaDV7xd-6">
          <mxGeometry relative="1" as="geometry">
            <mxPoint x="980" y="-120" as="targetPoint" />
            <mxPoint x="245" y="280" as="sourcePoint" />
          </mxGeometry>
        </mxCell>
        <mxCell id="xqDdNOHH6OhE9BaDV7xd-14" value="Web Brower" style="text;strokeColor=#432D57;align=center;fillColor=#76608a;html=1;verticalAlign=middle;whiteSpace=wrap;rounded=1;fontSize=16;fontColor=#ffffff;" vertex="1" parent="xqDdNOHH6OhE9BaDV7xd-1">
          <mxGeometry x="188.00000000000003" y="335" width="103.71" height="20" as="geometry" />
        </mxCell>
        <mxCell id="xqDdNOHH6OhE9BaDV7xd-15" value="" style="shape=image;verticalLabelPosition=bottom;verticalAlign=top;imageAspect=0;aspect=fixed;image=data:image/svg+xml,PHN2ZyB4bWxucz0iaHR0cDovL3d3dy53My5vcmcvMjAwMC9zdmciIHZlcnNpb249IjEiIHZpZXdCb3g9IjAgMCA0OCA0OCIgZW5hYmxlLWJhY2tncm91bmQ9Im5ldyAwIDAgNDggNDgiPiYjeGE7ICAgIDxwYXRoIGZpbGw9IiM3Q0IzNDIiIGQ9Ik0yNCw0QzEzLDQsNCwxMyw0LDI0czksMjAsMjAsMjBzMjAtOSwyMC0yMFMzNSw0LDI0LDR6Ii8+JiN4YTsgICAgPHBhdGggZmlsbD0iIzAyNzdCRCIgZD0iTTQ1LDI0YzAsMTEuNy05LjUsMjEtMjEsMjFTMywzNS43LDMsMjRTMTIuMywzLDI0LDNTNDUsMTIuMyw0NSwyNHogTTIzLjgsMzMuN2MwLTAuNC0wLjItMC42LTAuNi0wLjggYy0xLjMtMC40LTIuNS0wLjQtMy42LTEuNWMtMC4yLTAuNC0wLjItMC44LTAuNC0xLjNjLTAuNC0wLjQtMS41LTAuNi0yLjEtMC44Yy0wLjgsMC0xLjcsMC0yLjcsMGMtMC40LDAtMS4xLDAtMS41LDAgYy0wLjYtMC4yLTEuMS0xLjEtMS41LTEuN2MwLTAuMiwwLTAuNi0wLjQtMC42Yy0wLjQtMC4yLTAuOCwwLjItMS4zLDBjLTAuMi0wLjItMC4yLTAuNC0wLjItMC42YzAtMC42LDAuNC0xLjMsMC44LTEuNyBjMC42LTAuNCwxLjMsMC4yLDEuOSwwLjJjMC4yLDAsMC4yLDAsMC40LDAuMmMwLjYsMC4yLDAuOCwxLDAuOCwxLjdjMCwwLjIsMCwwLjQsMCwwLjRjMCwwLjIsMC4yLDAuMiwwLjQsMC4yIGMwLjItMS4xLDAuMi0yLjEsMC40LTMuMmMwLTEuMywxLjMtMi41LDIuMy0yLjljMC40LTAuMiwwLjYsMC4yLDEuMSwwYzEuMy0wLjQsNC40LTEuNywzLjgtMy40Yy0wLjQtMS41LTEuNy0yLjktMy40LTIuNyBjLTAuNCwwLjItMC42LDAuNC0xLDAuNmMtMC42LDAuNC0xLjksMS43LTIuNSwxLjdjLTEuMS0wLjItMS4xLTEuNy0wLjgtMi4zYzAuMi0wLjgsMi4xLTMuNiwzLjQtMy4xYzAuMiwwLjIsMC42LDAuNiwwLjgsMC44IGMwLjQsMC4yLDEuMSwwLjIsMS43LDAuMmMwLjIsMCwwLjQsMCwwLjYtMC4yYzAuMi0wLjIsMC4yLTAuMiwwLjItMC40YzAtMC42LTAuNi0xLjMtMS0xLjdjLTAuNC0wLjQtMS4xLTAuOC0xLjctMS4xIGMtMi4xLTAuNi01LjUsMC4yLTcuMSwxLjdzLTIuOSw0LTMuOCw2LjFjLTAuNCwxLjMtMC44LDIuOS0xLDQuNGMtMC4yLDEtMC40LDEuOSwwLjIsMi45YzAuNiwxLjMsMS45LDIuNSwzLjIsMy40IGMwLjgsMC42LDIuNSwwLjYsMy40LDEuN2MwLjYsMC44LDAuNCwxLjksMC40LDIuOWMwLDEuMywwLjgsMi4zLDEuMywzLjRjMC4yLDAuNiwwLjQsMS41LDAuNiwyLjFjMCwwLjIsMC4yLDEuNSwwLjIsMS43IGMxLjMsMC42LDIuMywxLjMsMy44LDEuN2MwLjIsMCwxLTEuMywxLTEuNWMwLjYtMC42LDEuMS0xLjUsMS43LTEuOWMwLjQtMC4yLDAuOC0wLjQsMS4zLTAuOGMwLjQtMC40LDAuNi0xLjMsMC44LTEuOSBDMjMuOCwzNS4xLDI0LDM0LjMsMjMuOCwzMy43eiBNMjQuMiwxNC4zYzAuMiwwLDAuNC0wLjIsMC44LTAuNGMwLjYtMC40LDEuMy0xLjEsMS45LTEuNWMwLjYtMC40LDEuMy0xLjEsMS43LTEuNSBjMC42LTAuNCwxLjEtMS4zLDEuMy0xLjljMC4yLTAuNCwwLjgtMS4zLDAuNi0xLjljLTAuMi0wLjQtMS4zLTAuNi0xLjctMC44Yy0xLjctMC40LTMuMS0wLjYtNC44LTAuNmMtMC42LDAtMS41LDAuMi0xLjcsMC44IGMtMC4yLDEuMSwwLjYsMC44LDEuNSwxLjFjMCwwLDAuMiwxLjcsMC4yLDEuOWMwLjIsMS0wLjQsMS43LTAuNCwyLjdjMCwwLjYsMCwxLjcsMC40LDIuMUwyNC4yLDE0LjN6IE00MS44LDI5IGMwLjItMC40LDAuMi0xLjEsMC40LTEuNWMwLjItMSwwLjItMi4xLDAuMi0zLjFjMC0yLjEtMC4yLTQuMi0wLjgtNi4xYy0wLjQtMC42LTAuNi0xLjMtMC44LTEuOWMtMC40LTEuMS0xLTIuMS0xLjktMi45IGMtMC44LTEuMS0xLjktNC0zLjgtMy4xYy0wLjYsMC4yLTEsMS0xLjUsMS41Yy0wLjQsMC42LTAuOCwxLjMtMS4zLDEuOWMtMC4yLDAuMi0wLjQsMC42LTAuMiwwLjhjMCwwLjIsMC4yLDAuMiwwLjQsMC4yIGMwLjQsMC4yLDAuNiwwLjIsMSwwLjRjMC4yLDAsMC40LDAuMiwwLjIsMC40YzAsMCwwLDAuMi0wLjIsMC4yYy0xLDEuMS0yLjEsMS45LTMuMSwyLjljLTAuMiwwLjItMC40LDAuNi0wLjQsMC44IGMwLDAuMiwwLjIsMC4yLDAuMiwwLjRjMCwwLjItMC4yLDAuMi0wLjQsMC40Yy0wLjQsMC4yLTAuOCwwLjQtMS4xLDAuNmMtMC4yLDAuNCwwLDEuMS0wLjIsMS41Yy0wLjIsMS4xLTAuOCwxLjktMS4zLDIuOSBjLTAuNCwwLjYtMC42LDEuMy0xLDEuOWMwLDAuOC0wLjIsMS41LDAuMiwyLjFjMSwxLjUsMi45LDAuNiw0LjQsMS4zYzAuNCwwLjIsMC44LDAuMiwxLjEsMC42YzAuNiwwLjYsMC42LDEuNywwLjgsMi4zIGMwLjIsMC44LDAuNCwxLjcsMC44LDIuNWMwLjIsMSwwLjYsMi4xLDAuOCwyLjljMS45LTEuNSwzLjYtMy4xLDQuOC01LjJDNDAuNiwzMi40LDQxLjIsMzAuNyw0MS44LDI5eiIvPiYjeGE7PC9zdmc+;fontSize=16;rounded=1;" vertex="1" parent="xqDdNOHH6OhE9BaDV7xd-1">
          <mxGeometry x="222" y="284" width="48" height="48" as="geometry" />
        </mxCell>
        <mxCell id="xqDdNOHH6OhE9BaDV7xd-19" value="" style="group;rounded=1;fillColor=#ffcd28;strokeColor=#d79b00;gradientColor=#ffa500;" vertex="1" connectable="0" parent="xqDdNOHH6OhE9BaDV7xd-1">
          <mxGeometry x="402.42" y="380" width="187.58" height="200" as="geometry" />
        </mxCell>
        <mxCell id="xqDdNOHH6OhE9BaDV7xd-20" value="" style="shape=image;verticalLabelPosition=bottom;verticalAlign=top;imageAspect=0;aspect=fixed;image=data:image/svg+xml,PHN2ZyB4bWxucz0iaHR0cDovL3d3dy53My5vcmcvMjAwMC9zdmciIHZlcnNpb249IjEiIHZpZXdCb3g9IjAgMCA0OCA0OCIgZW5hYmxlLWJhY2tncm91bmQ9Im5ldyAwIDAgNDggNDgiPiYjeGE7ICAgIDxyZWN0IHg9IjEyIiB5PSI0NCIgZmlsbD0iIzI2MzIzOCIgd2lkdGg9IjQiIGhlaWdodD0iMiIvPiYjeGE7ICAgIDxyZWN0IHg9IjMyIiB5PSI0NCIgZmlsbD0iIzI2MzIzOCIgd2lkdGg9IjQiIGhlaWdodD0iMiIvPiYjeGE7ICAgIDxwYXRoIGZpbGw9IiM2MDdEOEIiIGQ9Ik04LDQxVjdjMC0yLjIsMS44LTQsNC00aDI0YzIuMiwwLDQsMS44LDQsNHYzNGMwLDIuMi0xLjgsNC00LDRIMTJDOS44LDQ1LDgsNDMuMiw4LDQxeiIvPiYjeGE7ICAgIDxwYXRoIGZpbGw9IiNCMEJFQzUiIGQ9Ik0xMiwxN1Y4YzAtMC42LDAuNC0xLDEtMWgyMmMwLjYsMCwxLDAuNCwxLDF2OUgxMnoiLz4mI3hhOyAgICA8cmVjdCB4PSIxMiIgeT0iMTkiIGZpbGw9IiNCMEJFQzUiIHdpZHRoPSIyNCIgaGVpZ2h0PSIxMCIvPiYjeGE7ICAgIDxwYXRoIGZpbGw9IiNCMEJFQzUiIGQ9Ik0xMiw0MHYtOWgyNHY5YzAsMC42LTAuNCwxLTEsMUgxM0MxMi40LDQxLDEyLDQwLjYsMTIsNDB6Ii8+JiN4YTsgICAgPHJlY3QgeD0iMjAiIHk9IjExIiBmaWxsPSIjNTQ2RTdBIiB3aWR0aD0iOCIgaGVpZ2h0PSIyIi8+JiN4YTsgICAgPHJlY3QgeD0iMjAiIHk9IjIzIiBmaWxsPSIjNTQ2RTdBIiB3aWR0aD0iOCIgaGVpZ2h0PSIyIi8+JiN4YTsgICAgPHJlY3QgeD0iMjAiIHk9IjM1IiBmaWxsPSIjNTQ2RTdBIiB3aWR0aD0iOCIgaGVpZ2h0PSIyIi8+JiN4YTs8L3N2Zz4=;fontSize=16;rounded=1;fillColor=#ffcd28;strokeColor=#d79b00;gradientColor=#ffa500;" vertex="1" parent="xqDdNOHH6OhE9BaDV7xd-19">
          <mxGeometry x="21.634714324397507" y="-16.73372781065089" width="130.3431952662722" height="130.3431952662722" as="geometry" />
        </mxCell>
        <mxCell id="cJ2oHsDJEfoyKOnKyrQ6-14" value="Application, Files,&lt;br&gt;&amp;nbsp;code sources .." style="text;html=1;align=center;verticalAlign=middle;resizable=0;points=[];autosize=1;strokeColor=#d79b00;fillColor=#ffcd28;gradientColor=#ffa500;" vertex="1" parent="xqDdNOHH6OhE9BaDV7xd-19">
          <mxGeometry x="22.501473057135083" y="152.66272189349112" width="120" height="40" as="geometry" />
        </mxCell>
        <mxCell id="xqDdNOHH6OhE9BaDV7xd-18" value="Application Server&amp;nbsp;" style="text;strokeColor=#d79b00;align=center;fillColor=#ffcd28;html=1;verticalAlign=middle;whiteSpace=wrap;rounded=1;fontSize=16;gradientColor=#ffa500;" vertex="1" parent="xqDdNOHH6OhE9BaDV7xd-19">
          <mxGeometry x="6.438062550771649" y="113.60946745562131" width="177.7768751692391" height="35.50295857988166" as="geometry" />
        </mxCell>
        <mxCell id="xqDdNOHH6OhE9BaDV7xd-22" value="" style="shape=image;verticalLabelPosition=bottom;verticalAlign=top;imageAspect=0;aspect=fixed;image=data:image/svg+xml,PHN2ZyB4bWxucz0iaHR0cDovL3d3dy53My5vcmcvMjAwMC9zdmciIHZlcnNpb249IjEiIHZpZXdCb3g9IjAgMCA0OCA0OCIgZW5hYmxlLWJhY2tncm91bmQ9Im5ldyAwIDAgNDggNDgiPiYjeGE7ICAgIDxyZWN0IHg9IjEyIiB5PSI0NCIgZmlsbD0iIzI2MzIzOCIgd2lkdGg9IjQiIGhlaWdodD0iMiIvPiYjeGE7ICAgIDxyZWN0IHg9IjMyIiB5PSI0NCIgZmlsbD0iIzI2MzIzOCIgd2lkdGg9IjQiIGhlaWdodD0iMiIvPiYjeGE7ICAgIDxwYXRoIGZpbGw9IiM2MDdEOEIiIGQ9Ik04LDQxVjdjMC0yLjIsMS44LTQsNC00aDI0YzIuMiwwLDQsMS44LDQsNHYzNGMwLDIuMi0xLjgsNC00LDRIMTJDOS44LDQ1LDgsNDMuMiw4LDQxeiIvPiYjeGE7ICAgIDxwYXRoIGZpbGw9IiNCMEJFQzUiIGQ9Ik0xMiwxN1Y4YzAtMC42LDAuNC0xLDEtMWgyMmMwLjYsMCwxLDAuNCwxLDF2OUgxMnoiLz4mI3hhOyAgICA8cmVjdCB4PSIxMiIgeT0iMTkiIGZpbGw9IiNCMEJFQzUiIHdpZHRoPSIyNCIgaGVpZ2h0PSIxMCIvPiYjeGE7ICAgIDxwYXRoIGZpbGw9IiNCMEJFQzUiIGQ9Ik0xMiw0MHYtOWgyNHY5YzAsMC42LTAuNCwxLTEsMUgxM0MxMi40LDQxLDEyLDQwLjYsMTIsNDB6Ii8+JiN4YTsgICAgPHJlY3QgeD0iMjAiIHk9IjExIiBmaWxsPSIjNTQ2RTdBIiB3aWR0aD0iOCIgaGVpZ2h0PSIyIi8+JiN4YTsgICAgPHJlY3QgeD0iMjAiIHk9IjIzIiBmaWxsPSIjNTQ2RTdBIiB3aWR0aD0iOCIgaGVpZ2h0PSIyIi8+JiN4YTsgICAgPHJlY3QgeD0iMjAiIHk9IjM1IiBmaWxsPSIjNTQ2RTdBIiB3aWR0aD0iOCIgaGVpZ2h0PSIyIi8+JiN4YTs8L3N2Zz4=;fontSize=16;rounded=1;" vertex="1" parent="xqDdNOHH6OhE9BaDV7xd-1">
          <mxGeometry x="882" y="148" width="116" height="116" as="geometry" />
        </mxCell>
        <mxCell id="cJ2oHsDJEfoyKOnKyrQ6-45" style="edgeStyle=orthogonalEdgeStyle;rounded=1;orthogonalLoop=1;jettySize=auto;html=1;" edge="1" parent="xqDdNOHH6OhE9BaDV7xd-1">
          <mxGeometry relative="1" as="geometry">
            <mxPoint x="1810.61" y="1750.14" as="targetPoint" />
            <mxPoint x="1720.9999999999998" y="1739.9971428571432" as="sourcePoint" />
          </mxGeometry>
        </mxCell>
        <mxCell id="xqDdNOHH6OhE9BaDV7xd-26" value="" style="shape=image;verticalLabelPosition=bottom;verticalAlign=top;imageAspect=0;aspect=fixed;image=data:image/svg+xml,PHN2ZyB4bWxucz0iaHR0cDovL3d3dy53My5vcmcvMjAwMC9zdmciIHZlcnNpb249IjEiIHZpZXdCb3g9IjAgMCA0OCA0OCIgZW5hYmxlLWJhY2tncm91bmQ9Im5ldyAwIDAgNDggNDgiPiYjeGE7ICAgIDxnIGZpbGw9IiNEMUM0RTkiPiYjeGE7ICAgICAgICA8cGF0aCBkPSJNMzgsN0gxMEM4LjksNyw4LDcuOSw4LDl2NmMwLDEuMSwwLjksMiwyLDJoMjhjMS4xLDAsMi0wLjksMi0yVjlDNDAsNy45LDM5LjEsNywzOCw3eiIvPiYjeGE7ICAgICAgICA8cGF0aCBkPSJNMzgsMTlIMTBjLTEuMSwwLTIsMC45LTIsMnY2YzAsMS4xLDAuOSwyLDIsMmgyOGMxLjEsMCwyLTAuOSwyLTJ2LTZDNDAsMTkuOSwzOS4xLDE5LDM4LDE5eiIvPiYjeGE7ICAgICAgICA8cGF0aCBkPSJNMzgsMzFIMTBjLTEuMSwwLTIsMC45LTIsMnY2YzAsMS4xLDAuOSwyLDIsMmgyOGMxLjEsMCwyLTAuOSwyLTJ2LTZDNDAsMzEuOSwzOS4xLDMxLDM4LDMxeiIvPiYjeGE7ICAgIDwvZz4mI3hhOyAgICA8Y2lyY2xlIGZpbGw9IiM0M0EwNDciIGN4PSIzOCIgY3k9IjM4IiByPSIxMCIvPiYjeGE7ICAgIDxwb2x5Z29uIGZpbGw9IiNEQ0VEQzgiIHBvaW50cz0iNDIuNSwzMy4zIDM2LjgsMzkgMzQuMSwzNi4zIDMyLDM4LjUgMzYuOCw0My4zIDQ0LjYsMzUuNSIvPiYjeGE7PC9zdmc+;fontSize=16;rounded=1;" vertex="1" parent="xqDdNOHH6OhE9BaDV7xd-1">
          <mxGeometry x="467.03999999999996" y="659.65" width="80.35" height="80.35" as="geometry" />
        </mxCell>
        <mxCell id="xqDdNOHH6OhE9BaDV7xd-29" style="edgeStyle=none;curved=1;rounded=1;orthogonalLoop=1;jettySize=auto;html=1;fontSize=12;startSize=8;endSize=8;entryX=0.614;entryY=1.171;entryDx=0;entryDy=0;entryPerimeter=0;" edge="1" parent="xqDdNOHH6OhE9BaDV7xd-1" source="xqDdNOHH6OhE9BaDV7xd-10" target="xqDdNOHH6OhE9BaDV7xd-14">
          <mxGeometry relative="1" as="geometry">
            <mxPoint x="670" y="-170" as="targetPoint" />
          </mxGeometry>
        </mxCell>
        <mxCell id="xqDdNOHH6OhE9BaDV7xd-31" value="&lt;b&gt;By Alban Okoby, &lt;br&gt;ALX Software Engineering&lt;/b&gt;" style="text=white;align=center;html=1;verticalAlign=middle;whiteSpace=wrap;rounded=1;fontSize=20;fillColor=#d80073;strokeColor=#A50040;fontColor=#ffffff;" vertex="1" parent="xqDdNOHH6OhE9BaDV7xd-1">
          <mxGeometry x="820" y="-120" width="290" height="60" as="geometry" />
        </mxCell>
        <mxCell id="xqDdNOHH6OhE9BaDV7xd-32" value="Distributed_web_infrastructure" style="text;strokeColor=#432D57;align=center;fillColor=#76608a;html=1;verticalAlign=middle;whiteSpace=wrap;rounded=1;fontSize=26;fontColor=#ffffff;" vertex="1" parent="xqDdNOHH6OhE9BaDV7xd-1">
          <mxGeometry x="365.21" y="-180" width="380" height="100" as="geometry" />
        </mxCell>
        <mxCell id="xqDdNOHH6OhE9BaDV7xd-4" value="" style="shape=image;verticalLabelPosition=bottom;verticalAlign=top;imageAspect=0;aspect=fixed;image=data:image/svg+xml,PHN2ZyB4bWxucz0iaHR0cDovL3d3dy53My5vcmcvMjAwMC9zdmciIHZlcnNpb249IjEiIHZpZXdCb3g9IjAgMCA0OCA0OCIgZW5hYmxlLWJhY2tncm91bmQ9Im5ldyAwIDAgNDggNDgiPiYjeGE7ICAgIDxwYXRoIGZpbGw9IiMzNzQ3NEYiIGQ9Ik04LDQxVjdjMC0yLjIsMS44LTQsNC00aDI0YzIuMiwwLDQsMS44LDQsNHYzNGMwLDIuMi0xLjgsNC00LDRIMTJDOS44LDQ1LDgsNDMuMiw4LDQxeiIvPiYjeGE7ICAgIDxwYXRoIGZpbGw9IiNCQkRFRkIiIGQ9Ik0zNiw2SDEyYy0wLjYsMC0xLDAuNC0xLDF2MzFjMCwwLjYsMC40LDEsMSwxaDI0YzAuNiwwLDEtMC40LDEtMVY3QzM3LDYuNCwzNi42LDYsMzYsNnoiLz4mI3hhOyAgICA8cmVjdCB4PSIyMSIgeT0iNDEiIGZpbGw9IiM3ODkwOUMiIHdpZHRoPSI2IiBoZWlnaHQ9IjIiLz4mI3hhOzwvc3ZnPg==;fontSize=16;rounded=1;" vertex="1" parent="xqDdNOHH6OhE9BaDV7xd-1">
          <mxGeometry x="39.36" y="439.99999999999994" width="65" height="65" as="geometry" />
        </mxCell>
        <mxCell id="cJ2oHsDJEfoyKOnKyrQ6-38" style="edgeStyle=orthogonalEdgeStyle;rounded=1;orthogonalLoop=1;jettySize=auto;html=1;entryX=0;entryY=0.75;entryDx=0;entryDy=0;" edge="1" parent="xqDdNOHH6OhE9BaDV7xd-1" source="xqDdNOHH6OhE9BaDV7xd-3" target="xqDdNOHH6OhE9BaDV7xd-10">
          <mxGeometry relative="1" as="geometry" />
        </mxCell>
        <mxCell id="xqDdNOHH6OhE9BaDV7xd-3" value="User&#39;s Device&lt;br&gt;" style="text;strokeColor=#432D57;align=center;fillColor=#76608a;html=1;verticalAlign=middle;whiteSpace=wrap;rounded=1;fontSize=16;fontColor=#ffffff;" vertex="1" parent="xqDdNOHH6OhE9BaDV7xd-1">
          <mxGeometry x="20.002857142857124" y="508.78999999999996" width="103.71428571428572" height="36.214285714285715" as="geometry" />
        </mxCell>
        <mxCell id="cJ2oHsDJEfoyKOnKyrQ6-1" value="" style="shape=image;verticalLabelPosition=bottom;verticalAlign=top;imageAspect=0;aspect=fixed;image=data:image/svg+xml,PHN2ZyB4bWxucz0iaHR0cDovL3d3dy53My5vcmcvMjAwMC9zdmciIHZlcnNpb249IjEiIHZpZXdCb3g9IjAgMCA0OCA0OCIgZW5hYmxlLWJhY2tncm91bmQ9Im5ldyAwIDAgNDggNDgiPiYjeGE7ICAgIDxwYXRoIGZpbGw9IiNBRDE0NTciIGQ9Ik0zNiw0YzAsOS4zLTYsMTMuMi0xMi44LDE3LjhDMTYuMSwyNi41LDgsMzEuOCw4LDQ0aDRjMC0xMC4xLDYuNS0xNC40LDEzLjQtMTguOUMzMi4yLDIwLjYsNDAsMTUuNCw0MCw0IEgzNnoiLz4mI3hhOyAgICA8cGF0aCBmaWxsPSIjQUQxNDU3IiBkPSJNMzgsNDFIMTFjLTAuNiwwLTEtMC40LTEtMXMwLjQtMSwxLTFoMjdjMC42LDAsMSwwLjQsMSwxUzM4LjYsNDEsMzgsNDF6Ii8+JiN4YTsgICAgPHBhdGggZmlsbD0iI0FEMTQ1NyIgZD0iTTM2LDM3SDEyYy0wLjYsMC0xLTAuNC0xLTFzMC40LTEsMS0xaDI0YzAuNiwwLDEsMC40LDEsMVMzNi42LDM3LDM2LDM3eiIvPiYjeGE7ICAgIDxwYXRoIGZpbGw9IiNBRDE0NTciIGQ9Ik0zNCwzM0gxNGMtMC42LDAtMS0wLjQtMS0xczAuNC0xLDEtMWgyMGMwLjYsMCwxLDAuNCwxLDFTMzQuNiwzMywzNCwzM3oiLz4mI3hhOyAgICA8cGF0aCBmaWxsPSIjQUQxNDU3IiBkPSJNMjksMjlIMTljLTAuNiwwLTEtMC40LTEtMXMwLjQtMSwxLTFoMTBjMC42LDAsMSwwLjQsMSwxUzI5LjYsMjksMjksMjl6Ii8+JiN4YTsgICAgPHBhdGggZmlsbD0iI0U5MUU2MyIgZD0iTTM3LDlIMTBDOS40LDksOSw4LjYsOSw4czAuNC0xLDEtMWgyN2MwLjYsMCwxLDAuNCwxLDFTMzcuNiw5LDM3LDl6Ii8+JiN4YTsgICAgPHBhdGggZmlsbD0iI0U5MUU2MyIgZD0iTTM2LDEzSDEyYy0wLjYsMC0xLTAuNC0xLTFzMC40LTEsMS0xaDI0YzAuNiwwLDEsMC40LDEsMVMzNi42LDEzLDM2LDEzeiIvPiYjeGE7ICAgIDxwYXRoIGZpbGw9IiNFOTFFNjMiIGQ9Ik0zNCwxN0gxNGMtMC42LDAtMS0wLjQtMS0xczAuNC0xLDEtMWgyMGMwLjYsMCwxLDAuNCwxLDFTMzQuNiwxNywzNCwxN3oiLz4mI3hhOyAgICA8cGF0aCBmaWxsPSIjRTkxRTYzIiBkPSJNMjksMjFIMTljLTAuNiwwLTEtMC40LTEtMXMwLjQtMSwxLTFoMTBjMC42LDAsMSwwLjQsMSwxUzI5LjYsMjEsMjksMjF6Ii8+JiN4YTsgICAgPHBhdGggZmlsbD0iI0U5MUU2MyIgZD0iTTQwLDQ0aC00YzAtMTAuMS02LjUtMTQuNC0xMy40LTE4LjlDMTUuOCwyMC42LDgsMTUuNCw4LDRoNGMwLDkuMyw2LDEzLjIsMTIuOCwxNy44IEMzMS45LDI2LjUsNDAsMzEuOCw0MCw0NHoiLz4mI3hhOzwvc3ZnPg==;rounded=1;" vertex="1" parent="xqDdNOHH6OhE9BaDV7xd-1">
          <mxGeometry x="670" y="-10" width="68" height="68" as="geometry" />
        </mxCell>
        <mxCell id="xqDdNOHH6OhE9BaDV7xd-8" value="" style="shape=image;verticalLabelPosition=bottom;verticalAlign=top;imageAspect=0;aspect=fixed;image=data:image/svg+xml,PHN2ZyB4bWxucz0iaHR0cDovL3d3dy53My5vcmcvMjAwMC9zdmciIHZlcnNpb249IjEiIHZpZXdCb3g9IjAgMCA0OCA0OCIgZW5hYmxlLWJhY2tncm91bmQ9Im5ldyAwIDAgNDggNDgiPiYjeGE7ICAgIDxwYXRoIGZpbGw9IiM3Q0IzNDIiIGQ9Ik0yNCw0QzEzLDQsNCwxMyw0LDI0czksMjAsMjAsMjBzMjAtOSwyMC0yMFMzNSw0LDI0LDR6Ii8+JiN4YTsgICAgPHBhdGggZmlsbD0iIzAyNzdCRCIgZD0iTTQ1LDI0YzAsMTEuNy05LjUsMjEtMjEsMjFTMywzNS43LDMsMjRTMTIuMywzLDI0LDNTNDUsMTIuMyw0NSwyNHogTTIzLjgsMzMuN2MwLTAuNC0wLjItMC42LTAuNi0wLjggYy0xLjMtMC40LTIuNS0wLjQtMy42LTEuNWMtMC4yLTAuNC0wLjItMC44LTAuNC0xLjNjLTAuNC0wLjQtMS41LTAuNi0yLjEtMC44Yy0wLjgsMC0xLjcsMC0yLjcsMGMtMC40LDAtMS4xLDAtMS41LDAgYy0wLjYtMC4yLTEuMS0xLjEtMS41LTEuN2MwLTAuMiwwLTAuNi0wLjQtMC42Yy0wLjQtMC4yLTAuOCwwLjItMS4zLDBjLTAuMi0wLjItMC4yLTAuNC0wLjItMC42YzAtMC42LDAuNC0xLjMsMC44LTEuNyBjMC42LTAuNCwxLjMsMC4yLDEuOSwwLjJjMC4yLDAsMC4yLDAsMC40LDAuMmMwLjYsMC4yLDAuOCwxLDAuOCwxLjdjMCwwLjIsMCwwLjQsMCwwLjRjMCwwLjIsMC4yLDAuMiwwLjQsMC4yIGMwLjItMS4xLDAuMi0yLjEsMC40LTMuMmMwLTEuMywxLjMtMi41LDIuMy0yLjljMC40LTAuMiwwLjYsMC4yLDEuMSwwYzEuMy0wLjQsNC40LTEuNywzLjgtMy40Yy0wLjQtMS41LTEuNy0yLjktMy40LTIuNyBjLTAuNCwwLjItMC42LDAuNC0xLDAuNmMtMC42LDAuNC0xLjksMS43LTIuNSwxLjdjLTEuMS0wLjItMS4xLTEuNy0wLjgtMi4zYzAuMi0wLjgsMi4xLTMuNiwzLjQtMy4xYzAuMiwwLjIsMC42LDAuNiwwLjgsMC44IGMwLjQsMC4yLDEuMSwwLjIsMS43LDAuMmMwLjIsMCwwLjQsMCwwLjYtMC4yYzAuMi0wLjIsMC4yLTAuMiwwLjItMC40YzAtMC42LTAuNi0xLjMtMS0xLjdjLTAuNC0wLjQtMS4xLTAuOC0xLjctMS4xIGMtMi4xLTAuNi01LjUsMC4yLTcuMSwxLjdzLTIuOSw0LTMuOCw2LjFjLTAuNCwxLjMtMC44LDIuOS0xLDQuNGMtMC4yLDEtMC40LDEuOSwwLjIsMi45YzAuNiwxLjMsMS45LDIuNSwzLjIsMy40IGMwLjgsMC42LDIuNSwwLjYsMy40LDEuN2MwLjYsMC44LDAuNCwxLjksMC40LDIuOWMwLDEuMywwLjgsMi4zLDEuMywzLjRjMC4yLDAuNiwwLjQsMS41LDAuNiwyLjFjMCwwLjIsMC4yLDEuNSwwLjIsMS43IGMxLjMsMC42LDIuMywxLjMsMy44LDEuN2MwLjIsMCwxLTEuMywxLTEuNWMwLjYtMC42LDEuMS0xLjUsMS43LTEuOWMwLjQtMC4yLDAuOC0wLjQsMS4zLTAuOGMwLjQtMC40LDAuNi0xLjMsMC44LTEuOSBDMjMuOCwzNS4xLDI0LDM0LjMsMjMuOCwzMy43eiBNMjQuMiwxNC4zYzAuMiwwLDAuNC0wLjIsMC44LTAuNGMwLjYtMC40LDEuMy0xLjEsMS45LTEuNWMwLjYtMC40LDEuMy0xLjEsMS43LTEuNSBjMC42LTAuNCwxLjEtMS4zLDEuMy0xLjljMC4yLTAuNCwwLjgtMS4zLDAuNi0xLjljLTAuMi0wLjQtMS4zLTAuNi0xLjctMC44Yy0xLjctMC40LTMuMS0wLjYtNC44LTAuNmMtMC42LDAtMS41LDAuMi0xLjcsMC44IGMtMC4yLDEuMSwwLjYsMC44LDEuNSwxLjFjMCwwLDAuMiwxLjcsMC4yLDEuOWMwLjIsMS0wLjQsMS43LTAuNCwyLjdjMCwwLjYsMCwxLjcsMC40LDIuMUwyNC4yLDE0LjN6IE00MS44LDI5IGMwLjItMC40LDAuMi0xLjEsMC40LTEuNWMwLjItMSwwLjItMi4xLDAuMi0zLjFjMC0yLjEtMC4yLTQuMi0wLjgtNi4xYy0wLjQtMC42LTAuNi0xLjMtMC44LTEuOWMtMC40LTEuMS0xLTIuMS0xLjktMi45IGMtMC44LTEuMS0xLjktNC0zLjgtMy4xYy0wLjYsMC4yLTEsMS0xLjUsMS41Yy0wLjQsMC42LTAuOCwxLjMtMS4zLDEuOWMtMC4yLDAuMi0wLjQsMC42LTAuMiwwLjhjMCwwLjIsMC4yLDAuMiwwLjQsMC4yIGMwLjQsMC4yLDAuNiwwLjIsMSwwLjRjMC4yLDAsMC40LDAuMiwwLjIsMC40YzAsMCwwLDAuMi0wLjIsMC4yYy0xLDEuMS0yLjEsMS45LTMuMSwyLjljLTAuMiwwLjItMC40LDAuNi0wLjQsMC44IGMwLDAuMiwwLjIsMC4yLDAuMiwwLjRjMCwwLjItMC4yLDAuMi0wLjQsMC40Yy0wLjQsMC4yLTAuOCwwLjQtMS4xLDAuNmMtMC4yLDAuNCwwLDEuMS0wLjIsMS41Yy0wLjIsMS4xLTAuOCwxLjktMS4zLDIuOSBjLTAuNCwwLjYtMC42LDEuMy0xLDEuOWMwLDAuOC0wLjIsMS41LDAuMiwyLjFjMSwxLjUsMi45LDAuNiw0LjQsMS4zYzAuNCwwLjIsMC44LDAuMiwxLjEsMC42YzAuNiwwLjYsMC42LDEuNywwLjgsMi4zIGMwLjIsMC44LDAuNCwxLjcsMC44LDIuNWMwLjIsMSwwLjYsMi4xLDAuOCwyLjljMS45LTEuNSwzLjYtMy4xLDQuOC01LjJDNDAuNiwzMi40LDQxLjIsMzAuNyw0MS44LDI5eiIvPiYjeGE7PC9zdmc+;fontSize=16;rounded=1;fillColor=#60a917;fontColor=#ffffff;strokeColor=#2D7600;" vertex="1" parent="xqDdNOHH6OhE9BaDV7xd-1">
          <mxGeometry x="220" y="26" width="48" height="48" as="geometry" />
        </mxCell>
        <mxCell id="xqDdNOHH6OhE9BaDV7xd-6" value="www.footer.com" style="text;strokeColor=#2D7600;align=center;fillColor=#60a917;html=1;verticalAlign=middle;whiteSpace=wrap;rounded=1;fontSize=16;fontColor=#ffffff;" vertex="1" parent="xqDdNOHH6OhE9BaDV7xd-1">
          <mxGeometry x="180" y="80" width="130" height="30" as="geometry" />
        </mxCell>
        <mxCell id="cJ2oHsDJEfoyKOnKyrQ6-8" value="Load Balancer" style="text;strokeColor=#b85450;align=center;fillColor=#f8cecc;html=1;verticalAlign=middle;whiteSpace=wrap;rounded=1;fontSize=16;gradientColor=#ea6b66;" vertex="1" parent="xqDdNOHH6OhE9BaDV7xd-1">
          <mxGeometry x="649.9999999999999" y="80" width="123.87" height="30" as="geometry" />
        </mxCell>
        <mxCell id="cJ2oHsDJEfoyKOnKyrQ6-9" value="" style="shape=image;verticalLabelPosition=bottom;verticalAlign=top;imageAspect=0;aspect=fixed;image=data:image/svg+xml,PHN2ZyB4bWxucz0iaHR0cDovL3d3dy53My5vcmcvMjAwMC9zdmciIHZlcnNpb249IjEiIHZpZXdCb3g9IjAgMCA0OCA0OCIgZW5hYmxlLWJhY2tncm91bmQ9Im5ldyAwIDAgNDggNDgiPiYjeGE7ICAgIDxyZWN0IHg9IjEyIiB5PSI0NCIgZmlsbD0iIzI2MzIzOCIgd2lkdGg9IjQiIGhlaWdodD0iMiIvPiYjeGE7ICAgIDxyZWN0IHg9IjMyIiB5PSI0NCIgZmlsbD0iIzI2MzIzOCIgd2lkdGg9IjQiIGhlaWdodD0iMiIvPiYjeGE7ICAgIDxwYXRoIGZpbGw9IiM2MDdEOEIiIGQ9Ik04LDQxVjdjMC0yLjIsMS44LTQsNC00aDI0YzIuMiwwLDQsMS44LDQsNHYzNGMwLDIuMi0xLjgsNC00LDRIMTJDOS44LDQ1LDgsNDMuMiw4LDQxeiIvPiYjeGE7ICAgIDxwYXRoIGZpbGw9IiNCMEJFQzUiIGQ9Ik0xMiwxN1Y4YzAtMC42LDAuNC0xLDEtMWgyMmMwLjYsMCwxLDAuNCwxLDF2OUgxMnoiLz4mI3hhOyAgICA8cmVjdCB4PSIxMiIgeT0iMTkiIGZpbGw9IiNCMEJFQzUiIHdpZHRoPSIyNCIgaGVpZ2h0PSIxMCIvPiYjeGE7ICAgIDxwYXRoIGZpbGw9IiNCMEJFQzUiIGQ9Ik0xMiw0MHYtOWgyNHY5YzAsMC42LTAuNCwxLTEsMUgxM0MxMi40LDQxLDEyLDQwLjYsMTIsNDB6Ii8+JiN4YTsgICAgPHJlY3QgeD0iMjAiIHk9IjExIiBmaWxsPSIjNTQ2RTdBIiB3aWR0aD0iOCIgaGVpZ2h0PSIyIi8+JiN4YTsgICAgPHJlY3QgeD0iMjAiIHk9IjIzIiBmaWxsPSIjNTQ2RTdBIiB3aWR0aD0iOCIgaGVpZ2h0PSIyIi8+JiN4YTsgICAgPHJlY3QgeD0iMjAiIHk9IjM1IiBmaWxsPSIjNTQ2RTdBIiB3aWR0aD0iOCIgaGVpZ2h0PSIyIi8+JiN4YTs8L3N2Zz4=;fontSize=16;rounded=1;fillColor=#ffcd28;strokeColor=#d79b00;gradientColor=#ffa500;" vertex="1" parent="xqDdNOHH6OhE9BaDV7xd-1">
          <mxGeometry x="428" y="160" width="114" height="114" as="geometry" />
        </mxCell>
        <mxCell id="cJ2oHsDJEfoyKOnKyrQ6-41" style="edgeStyle=orthogonalEdgeStyle;rounded=1;orthogonalLoop=1;jettySize=auto;html=1;" edge="1" parent="xqDdNOHH6OhE9BaDV7xd-1" source="cJ2oHsDJEfoyKOnKyrQ6-10" target="xqDdNOHH6OhE9BaDV7xd-20">
          <mxGeometry relative="1" as="geometry" />
        </mxCell>
        <mxCell id="cJ2oHsDJEfoyKOnKyrQ6-10" value="Server 1&lt;br&gt;(Nginx or apache )" style="text;strokeColor=#3700CC;align=center;fillColor=#6a00ff;html=1;verticalAlign=middle;whiteSpace=wrap;rounded=1;fontSize=16;fontColor=#ffffff;" vertex="1" parent="xqDdNOHH6OhE9BaDV7xd-1">
          <mxGeometry x="419.28" y="274" width="138" height="46" as="geometry" />
        </mxCell>
        <mxCell id="cJ2oHsDJEfoyKOnKyrQ6-16" value="" style="group;rounded=1;fillColor=#cdeb8b;strokeColor=#36393d;" vertex="1" connectable="0" parent="xqDdNOHH6OhE9BaDV7xd-1">
          <mxGeometry x="836" y="380" width="184.86" height="180" as="geometry" />
        </mxCell>
        <mxCell id="cJ2oHsDJEfoyKOnKyrQ6-17" value="" style="shape=image;verticalLabelPosition=bottom;verticalAlign=top;imageAspect=0;aspect=fixed;image=data:image/svg+xml,PHN2ZyB4bWxucz0iaHR0cDovL3d3dy53My5vcmcvMjAwMC9zdmciIHZlcnNpb249IjEiIHZpZXdCb3g9IjAgMCA0OCA0OCIgZW5hYmxlLWJhY2tncm91bmQ9Im5ldyAwIDAgNDggNDgiPiYjeGE7ICAgIDxyZWN0IHg9IjEyIiB5PSI0NCIgZmlsbD0iIzI2MzIzOCIgd2lkdGg9IjQiIGhlaWdodD0iMiIvPiYjeGE7ICAgIDxyZWN0IHg9IjMyIiB5PSI0NCIgZmlsbD0iIzI2MzIzOCIgd2lkdGg9IjQiIGhlaWdodD0iMiIvPiYjeGE7ICAgIDxwYXRoIGZpbGw9IiM2MDdEOEIiIGQ9Ik04LDQxVjdjMC0yLjIsMS44LTQsNC00aDI0YzIuMiwwLDQsMS44LDQsNHYzNGMwLDIuMi0xLjgsNC00LDRIMTJDOS44LDQ1LDgsNDMuMiw4LDQxeiIvPiYjeGE7ICAgIDxwYXRoIGZpbGw9IiNCMEJFQzUiIGQ9Ik0xMiwxN1Y4YzAtMC42LDAuNC0xLDEtMWgyMmMwLjYsMCwxLDAuNCwxLDF2OUgxMnoiLz4mI3hhOyAgICA8cmVjdCB4PSIxMiIgeT0iMTkiIGZpbGw9IiNCMEJFQzUiIHdpZHRoPSIyNCIgaGVpZ2h0PSIxMCIvPiYjeGE7ICAgIDxwYXRoIGZpbGw9IiNCMEJFQzUiIGQ9Ik0xMiw0MHYtOWgyNHY5YzAsMC42LTAuNCwxLTEsMUgxM0MxMi40LDQxLDEyLDQwLjYsMTIsNDB6Ii8+JiN4YTsgICAgPHJlY3QgeD0iMjAiIHk9IjExIiBmaWxsPSIjNTQ2RTdBIiB3aWR0aD0iOCIgaGVpZ2h0PSIyIi8+JiN4YTsgICAgPHJlY3QgeD0iMjAiIHk9IjIzIiBmaWxsPSIjNTQ2RTdBIiB3aWR0aD0iOCIgaGVpZ2h0PSIyIi8+JiN4YTsgICAgPHJlY3QgeD0iMjAiIHk9IjM1IiBmaWxsPSIjNTQ2RTdBIiB3aWR0aD0iOCIgaGVpZ2h0PSIyIi8+JiN4YTs8L3N2Zz4=;fontSize=16;rounded=1;fillColor=#cdeb8b;strokeColor=#36393d;" vertex="1" parent="cJ2oHsDJEfoyKOnKyrQ6-16">
          <mxGeometry x="38.60279041429732" y="-23.431952662721898" width="117.30887573964499" height="117.30887573964499" as="geometry" />
        </mxCell>
        <mxCell id="cJ2oHsDJEfoyKOnKyrQ6-18" value="Application, Files,&lt;br&gt;&amp;nbsp;code sources .." style="text;html=1;align=center;verticalAlign=middle;resizable=0;points=[];autosize=1;strokeColor=none;fillColor=none;" vertex="1" parent="cJ2oHsDJEfoyKOnKyrQ6-16">
          <mxGeometry x="22.17519090170589" y="137.39644970414201" width="120" height="40" as="geometry" />
        </mxCell>
        <mxCell id="cJ2oHsDJEfoyKOnKyrQ6-19" value="Application Server&amp;nbsp;" style="text;strokeColor=#36393d;align=center;fillColor=#cdeb8b;html=1;verticalAlign=middle;whiteSpace=wrap;rounded=1;fontSize=16;" vertex="1" parent="cJ2oHsDJEfoyKOnKyrQ6-16">
          <mxGeometry x="9.660974817221804" y="105.44378698224853" width="175.1990251827782" height="31.952662721893496" as="geometry" />
        </mxCell>
        <mxCell id="cJ2oHsDJEfoyKOnKyrQ6-20" value="Server 2&lt;br&gt;(Nginx or apache )" style="text;strokeColor=#001DBC;align=center;fillColor=#0050ef;html=1;verticalAlign=middle;whiteSpace=wrap;rounded=1;fontSize=16;fontColor=#ffffff;" vertex="1" parent="xqDdNOHH6OhE9BaDV7xd-1">
          <mxGeometry x="882" y="264" width="138" height="46" as="geometry" />
        </mxCell>
        <mxCell id="cJ2oHsDJEfoyKOnKyrQ6-21" value="" style="shape=image;verticalLabelPosition=bottom;verticalAlign=top;imageAspect=0;aspect=fixed;image=data:image/svg+xml,PHN2ZyB4bWxucz0iaHR0cDovL3d3dy53My5vcmcvMjAwMC9zdmciIHZlcnNpb249IjEiIHZpZXdCb3g9IjAgMCA0OCA0OCIgZW5hYmxlLWJhY2tncm91bmQ9Im5ldyAwIDAgNDggNDgiPiYjeGE7ICAgIDxnIGZpbGw9IiNEMUM0RTkiPiYjeGE7ICAgICAgICA8cGF0aCBkPSJNMzgsN0gxMEM4LjksNyw4LDcuOSw4LDl2NmMwLDEuMSwwLjksMiwyLDJoMjhjMS4xLDAsMi0wLjksMi0yVjlDNDAsNy45LDM5LjEsNywzOCw3eiIvPiYjeGE7ICAgICAgICA8cGF0aCBkPSJNMzgsMTlIMTBjLTEuMSwwLTIsMC45LTIsMnY2YzAsMS4xLDAuOSwyLDIsMmgyOGMxLjEsMCwyLTAuOSwyLTJ2LTZDNDAsMTkuOSwzOS4xLDE5LDM4LDE5eiIvPiYjeGE7ICAgICAgICA8cGF0aCBkPSJNMzgsMzFIMTBjLTEuMSwwLTIsMC45LTIsMnY2YzAsMS4xLDAuOSwyLDIsMmgyOGMxLjEsMCwyLTAuOSwyLTJ2LTZDNDAsMzEuOSwzOS4xLDMxLDM4LDMxeiIvPiYjeGE7ICAgIDwvZz4mI3hhOyAgICA8Y2lyY2xlIGZpbGw9IiM0M0EwNDciIGN4PSIzOCIgY3k9IjM4IiByPSIxMCIvPiYjeGE7ICAgIDxwb2x5Z29uIGZpbGw9IiNEQ0VEQzgiIHBvaW50cz0iNDIuNSwzMy4zIDM2LjgsMzkgMzQuMSwzNi4zIDMyLDM4LjUgMzYuOCw0My4zIDQ0LjYsMzUuNSIvPiYjeGE7PC9zdmc+;fontSize=16;rounded=1;fillColor=#60a917;fontColor=#ffffff;strokeColor=#2D7600;" vertex="1" parent="xqDdNOHH6OhE9BaDV7xd-1">
          <mxGeometry x="901.36" y="644" width="79.28" height="79.28" as="geometry" />
        </mxCell>
        <mxCell id="cJ2oHsDJEfoyKOnKyrQ6-22" value="Database (MySQL or any you want)" style="text;strokeColor=#2D7600;align=center;fillColor=#60a917;html=1;verticalAlign=middle;whiteSpace=wrap;rounded=1;fontSize=16;fontColor=#ffffff;" vertex="1" parent="xqDdNOHH6OhE9BaDV7xd-1">
          <mxGeometry x="875.86" y="736" width="144.14" height="50" as="geometry" />
        </mxCell>
        <mxCell id="cJ2oHsDJEfoyKOnKyrQ6-30" value="Database (MySQL or any you want)" style="text;strokeColor=#2D7600;align=center;fillColor=#60a917;html=1;verticalAlign=middle;whiteSpace=wrap;rounded=1;fontSize=16;fontColor=#ffffff;" vertex="1" parent="xqDdNOHH6OhE9BaDV7xd-1">
          <mxGeometry x="430.14" y="740" width="154.14" height="54.86" as="geometry" />
        </mxCell>
        <mxCell id="cJ2oHsDJEfoyKOnKyrQ6-33" style="edgeStyle=none;curved=1;rounded=1;orthogonalLoop=1;jettySize=auto;html=1;fontSize=12;startSize=8;endSize=8;exitX=1;exitY=0.25;exitDx=0;exitDy=0;" edge="1" parent="xqDdNOHH6OhE9BaDV7xd-1" source="xqDdNOHH6OhE9BaDV7xd-8" target="cJ2oHsDJEfoyKOnKyrQ6-1">
          <mxGeometry relative="1" as="geometry">
            <mxPoint x="690" y="10" as="targetPoint" />
            <mxPoint x="990" y="-90" as="sourcePoint" />
          </mxGeometry>
        </mxCell>
        <mxCell id="cJ2oHsDJEfoyKOnKyrQ6-34" style="edgeStyle=none;curved=1;rounded=1;orthogonalLoop=1;jettySize=auto;html=1;fontSize=12;startSize=8;endSize=8;exitX=0;exitY=1;exitDx=0;exitDy=0;entryX=0.663;entryY=-0.006;entryDx=0;entryDy=0;entryPerimeter=0;" edge="1" parent="xqDdNOHH6OhE9BaDV7xd-1" source="cJ2oHsDJEfoyKOnKyrQ6-1" target="cJ2oHsDJEfoyKOnKyrQ6-25">
          <mxGeometry relative="1" as="geometry">
            <mxPoint x="1000" y="-100" as="targetPoint" />
            <mxPoint x="770" y="-140" as="sourcePoint" />
          </mxGeometry>
        </mxCell>
        <mxCell id="cJ2oHsDJEfoyKOnKyrQ6-35" style="edgeStyle=none;curved=1;rounded=1;orthogonalLoop=1;jettySize=auto;html=1;fontSize=12;startSize=8;endSize=8;exitX=1;exitY=1;exitDx=0;exitDy=0;entryX=0.322;entryY=0.003;entryDx=0;entryDy=0;entryPerimeter=0;" edge="1" parent="xqDdNOHH6OhE9BaDV7xd-1" source="cJ2oHsDJEfoyKOnKyrQ6-1" target="cJ2oHsDJEfoyKOnKyrQ6-24">
          <mxGeometry relative="1" as="geometry">
            <mxPoint x="528" y="147" as="targetPoint" />
            <mxPoint x="688" y="12" as="sourcePoint" />
          </mxGeometry>
        </mxCell>
        <mxCell id="xqDdNOHH6OhE9BaDV7xd-10" value="" style="shape=image;verticalLabelPosition=bottom;verticalAlign=top;imageAspect=0;aspect=fixed;image=data:image/svg+xml,PHN2ZyB4bWxucz0iaHR0cDovL3d3dy53My5vcmcvMjAwMC9zdmciIHZlcnNpb249IjEiIHZpZXdCb3g9IjAgMCA0OCA0OCIgZW5hYmxlLWJhY2tncm91bmQ9Im5ldyAwIDAgNDggNDgiPiYjeGE7ICAgIDxwYXRoIGZpbGw9IiNCMEJFQzUiIGQ9Ik0zNyw0Mkg1VjMyaDMyYzIuOCwwLDUsMi4yLDUsNXYwQzQyLDM5LjgsMzkuOCw0MiwzNyw0MnoiLz4mI3hhOyAgICA8cGF0aCBmaWxsPSIjMzc0NzRGIiBkPSJNMTAsMzRjLTEuNywwLTMsMS4zLTMsM3MxLjMsMywzLDNzMy0xLjMsMy0zUzExLjcsMzQsMTAsMzR6IE0xMCwzOGMtMC42LDAtMS0wLjQtMS0xYzAtMC42LDAuNC0xLDEtMSBzMSwwLjQsMSwxQzExLDM3LjYsMTAuNiwzOCwxMCwzOHoiLz4mI3hhOyAgICA8cGF0aCBmaWxsPSIjMzc0NzRGIiBkPSJNMTksMzRjLTEuNywwLTMsMS4zLTMsM3MxLjMsMywzLDNzMy0xLjMsMy0zUzIwLjcsMzQsMTksMzR6IE0xOSwzOGMtMC42LDAtMS0wLjQtMS0xYzAtMC42LDAuNC0xLDEtMSBzMSwwLjQsMSwxQzIwLDM3LjYsMTkuNiwzOCwxOSwzOHoiLz4mI3hhOyAgICA8cGF0aCBmaWxsPSIjMzc0NzRGIiBkPSJNMzcsMzRjLTEuNywwLTMsMS4zLTMsM3MxLjMsMywzLDNzMy0xLjMsMy0zUzM4LjcsMzQsMzcsMzR6IE0zNywzOGMtMC42LDAtMS0wLjQtMS0xYzAtMC42LDAuNC0xLDEtMSBzMSwwLjQsMSwxQzM4LDM3LjYsMzcuNiwzOCwzNywzOHoiLz4mI3hhOyAgICA8cGF0aCBmaWxsPSIjMzc0NzRGIiBkPSJNMjgsMzRjLTEuNywwLTMsMS4zLTMsM3MxLjMsMywzLDNzMy0xLjMsMy0zUzI5LjcsMzQsMjgsMzR6IE0yOCwzOGMtMC42LDAtMS0wLjQtMS0xYzAtMC42LDAuNC0xLDEtMSBzMSwwLjQsMSwxQzI5LDM3LjYsMjguNiwzOCwyOCwzOHoiLz4mI3hhOyAgICA8cGF0aCBmaWxsPSIjRkY5ODAwIiBkPSJNMzUsMzFIMTFjLTEuMSwwLTItMC45LTItMlY3YzAtMS4xLDAuOS0yLDItMmgyNGMxLjEsMCwyLDAuOSwyLDJ2MjJDMzcsMzAuMSwzNi4xLDMxLDM1LDMxeiIvPiYjeGE7ICAgIDxwYXRoIGZpbGw9IiM4QTUxMDAiIGQ9Ik0yNi41LDEzaC03Yy0wLjgsMC0xLjUtMC43LTEuNS0xLjV2MGMwLTAuOCwwLjctMS41LDEuNS0xLjVoN2MwLjgsMCwxLjUsMC43LDEuNSwxLjV2MCBDMjgsMTIuMywyNy4zLDEzLDI2LjUsMTN6Ii8+JiN4YTsgICAgPHBhdGggZmlsbD0iIzYwN0Q4QiIgZD0iTTM3LDMxSDV2MmgzMmMyLjIsMCw0LDEuOCw0LDRzLTEuOCw0LTQsNEg1djJoMzJjMy4zLDAsNi0yLjcsNi02UzQwLjMsMzEsMzcsMzF6Ii8+JiN4YTs8L3N2Zz4=;fontSize=16;rounded=1;" vertex="1" parent="xqDdNOHH6OhE9BaDV7xd-1">
          <mxGeometry x="229" y="490" width="48" height="48" as="geometry" />
        </mxCell>
        <mxCell id="xqDdNOHH6OhE9BaDV7xd-11" value="DNS Server" style="text;strokeColor=#6F0000;align=center;fillColor=#a20025;html=1;verticalAlign=middle;whiteSpace=wrap;rounded=1;fontSize=16;fontColor=#ffffff;" vertex="1" parent="xqDdNOHH6OhE9BaDV7xd-1">
          <mxGeometry x="200" y="545" width="100" height="30" as="geometry" />
        </mxCell>
        <mxCell id="cJ2oHsDJEfoyKOnKyrQ6-43" style="edgeStyle=none;curved=1;rounded=1;orthogonalLoop=1;jettySize=auto;html=1;fontSize=12;startSize=8;endSize=8;entryX=0.557;entryY=0.115;entryDx=0;entryDy=0;entryPerimeter=0;" edge="1" parent="xqDdNOHH6OhE9BaDV7xd-1">
          <mxGeometry relative="1" as="geometry">
            <mxPoint x="929.94383420128" y="363.05856804733685" as="targetPoint" />
            <mxPoint x="930" y="303" as="sourcePoint" />
          </mxGeometry>
        </mxCell>
      </root>
    </mxGraphModel>
  </diagram>
</mxfile>
